M48
; DRILL file {KiCad (5.1.9)-1} date 02/21/21 18:32:47
; FORMAT={-:-/ absolute / inch / decimal}
; #@! TF.CreationDate,2021-02-21T18:32:47+01:00
; #@! TF.GenerationSoftware,Kicad,Pcbnew,(5.1.9)-1
; #@! TF.FileFunction,Plated,1,2,PTH
FMAT,2
INCH
T1C0.0315
T2C0.0374
T3C0.0394
%
G90
G05
T1
X2.5591Y-2.5
X2.8591Y-2.5
T2
X1.1811Y-0.9547
X1.2795Y-0.9547
X1.378Y-0.9547
X1.4764Y-0.9547
X1.7126Y-1.1909
X1.7126Y-1.2894
X1.7126Y-1.3878
X1.7126Y-1.4862
X1.7126Y-1.7323
X1.7126Y-1.8307
X1.7126Y-1.9291
X1.7126Y-2.0276
X2.2441Y-2.8248
X2.3425Y-2.8248
X2.4409Y-2.8248
X2.5394Y-2.8248
X3.1791Y-2.3524
X3.1791Y-2.4508
X3.1791Y-2.5492
X3.5827Y-2.5394
X3.5827Y-2.6378
X3.5827Y-2.7362
X3.5827Y-2.8346
X3.7303Y-1.9193
X3.8287Y-1.9193
X3.9272Y-1.9193
X4.0256Y-1.9193
X4.1732Y-2.5394
X4.1732Y-2.6378
X4.1732Y-2.7362
X4.1732Y-2.8346
X5.4035Y-1.8012
X5.502Y-1.8012
X5.6004Y-1.8012
X5.6102Y-0.8268
X5.6988Y-1.8012
X5.7087Y-0.8268
X5.7972Y-1.8012
X5.8071Y-0.8268
X5.8957Y-1.8012
X5.9055Y-0.8268
X6.2008Y-0.7874
X6.2008Y-0.8858
X6.2008Y-0.9843
T3
X0.9646Y-2.372
X0.9646Y-2.4902
X1.0433Y-1.3583
X1.0433Y-1.4764
X1.0433Y-1.5945
X1.0433Y-1.7126
X1.0433Y-1.8307
X1.0433Y-1.9488
X1.0827Y-2.372
X1.0827Y-2.4902
X1.1614Y-1.3583
X1.1614Y-1.4764
X1.1614Y-1.5945
X1.1614Y-1.7126
X1.1614Y-1.8307
X1.1614Y-1.9488
X1.1811Y-2.8248
X1.2008Y-2.372
X1.2008Y-2.4902
X1.2795Y-2.8248
X1.3189Y-2.372
X1.3189Y-2.4902
X1.437Y-2.372
X1.437Y-2.4902
X1.5354Y-2.8248
X1.5551Y-2.372
X1.5551Y-2.4902
X1.6339Y-2.8248
X1.6732Y-2.372
X1.6732Y-2.4902
X1.7913Y-2.372
X1.7913Y-2.4902
X1.8898Y-2.8248
X1.9094Y-2.372
X1.9094Y-2.4902
X1.9882Y-2.8248
X2.0276Y-2.372
X2.0276Y-2.4902
X2.0472Y-1.6437
X2.0472Y-1.9685
X2.1457Y-1.6437
X2.1457Y-1.9685
X2.1457Y-2.372
X2.1457Y-2.4902
X2.2638Y-2.372
X2.2638Y-2.4902
X2.6087Y-2.0571
X2.7087Y-2.0571
X2.8087Y-2.0571
X2.9087Y-2.0571
X3.0087Y-2.0571
X3.1087Y-2.0571
X3.2087Y-2.0571
X3.5827Y-2.185
X3.5827Y-2.3031
X3.7008Y-2.185
X3.7008Y-2.3031
X3.8189Y-2.185
X3.8189Y-2.3031
X3.937Y-2.185
X3.937Y-2.3031
X4.0551Y-2.185
X4.0551Y-2.3031
X4.1732Y-2.185
X4.1732Y-2.3031
X4.5768Y-0.8268
X4.5768Y-1.8012
X4.6063Y-1.25
X4.6063Y-1.3681
X4.6752Y-0.8268
X4.6752Y-1.8012
X4.7244Y-1.25
X4.7244Y-1.3681
X4.8425Y-1.25
X4.8425Y-1.3681
X4.9213Y-0.8268
X4.9213Y-1.8012
X4.9606Y-1.25
X4.9606Y-1.3681
X5.0197Y-0.8268
X5.0197Y-1.8012
X5.0787Y-1.25
X5.0787Y-1.3681
X5.1969Y-1.25
X5.1969Y-1.3681
X5.2165Y-1.6437
X5.2165Y-1.7437
X5.2165Y-1.8437
X5.2657Y-0.8268
X5.315Y-1.25
X5.315Y-1.3681
X5.3642Y-0.8268
X5.4331Y-1.25
X5.4331Y-1.3681
X5.5512Y-1.25
X5.5512Y-1.3681
X5.6252Y-1.565
X5.6693Y-1.25
X5.6693Y-1.3681
X5.7252Y-1.565
X5.7874Y-1.25
X5.7874Y-1.3681
X5.8252Y-1.565
X5.9055Y-1.25
X5.9055Y-1.3681
X5.9252Y-1.565
T0
M30
