%TF.GenerationSoftware,KiCad,Pcbnew,(5.1.9)-1*%
%TF.CreationDate,2021-02-21T18:32:43+01:00*%
%TF.ProjectId,voron2_pcb,766f726f-6e32-45f7-9063-622e6b696361,rev?*%
%TF.SameCoordinates,Original*%
%TF.FileFunction,Soldermask,Top*%
%TF.FilePolarity,Negative*%
%FSLAX46Y46*%
G04 Gerber Fmt 4.6, Leading zero omitted, Abs format (unit mm)*
G04 Created by KiCad (PCBNEW (5.1.9)-1) date 2021-02-21 18:32:43*
%MOMM*%
%LPD*%
G01*
G04 APERTURE LIST*
%ADD10O,1.950000X1.700000*%
%ADD11O,1.700000X2.000000*%
%ADD12C,1.500000*%
%ADD13C,1.000000*%
%ADD14O,1.700000X1.700000*%
%ADD15R,1.700000X1.700000*%
%ADD16O,1.700000X1.950000*%
%ADD17C,2.200000*%
%ADD18C,3.200000*%
%ADD19O,1.600000X1.600000*%
%ADD20R,1.600000X1.600000*%
G04 APERTURE END LIST*
D10*
%TO.C,J28*%
X43500000Y-44000000D03*
X43500000Y-46500000D03*
X43500000Y-49000000D03*
G36*
G01*
X44225000Y-52350000D02*
X42775000Y-52350000D01*
G75*
G02*
X42525000Y-52100000I0J250000D01*
G01*
X42525000Y-50900000D01*
G75*
G02*
X42775000Y-50650000I250000J0D01*
G01*
X44225000Y-50650000D01*
G75*
G02*
X44475000Y-50900000I0J-250000D01*
G01*
X44475000Y-52100000D01*
G75*
G02*
X44225000Y-52350000I-250000J0D01*
G01*
G37*
%TD*%
%TO.C,J27*%
X43500000Y-30250000D03*
X43500000Y-32750000D03*
X43500000Y-35250000D03*
G36*
G01*
X44225000Y-38600000D02*
X42775000Y-38600000D01*
G75*
G02*
X42525000Y-38350000I0J250000D01*
G01*
X42525000Y-37150000D01*
G75*
G02*
X42775000Y-36900000I250000J0D01*
G01*
X44225000Y-36900000D01*
G75*
G02*
X44475000Y-37150000I0J-250000D01*
G01*
X44475000Y-38350000D01*
G75*
G02*
X44225000Y-38600000I-250000J0D01*
G01*
G37*
%TD*%
D11*
%TO.C,J26*%
X52000000Y-41750000D03*
G36*
G01*
X55350000Y-41000000D02*
X55350000Y-42500000D01*
G75*
G02*
X55100000Y-42750000I-250000J0D01*
G01*
X53900000Y-42750000D01*
G75*
G02*
X53650000Y-42500000I0J250000D01*
G01*
X53650000Y-41000000D01*
G75*
G02*
X53900000Y-40750000I250000J0D01*
G01*
X55100000Y-40750000D01*
G75*
G02*
X55350000Y-41000000I0J-250000D01*
G01*
G37*
%TD*%
%TO.C,J25*%
X30000000Y-71750000D03*
G36*
G01*
X33350000Y-71000000D02*
X33350000Y-72500000D01*
G75*
G02*
X33100000Y-72750000I-250000J0D01*
G01*
X31900000Y-72750000D01*
G75*
G02*
X31650000Y-72500000I0J250000D01*
G01*
X31650000Y-71000000D01*
G75*
G02*
X31900000Y-70750000I250000J0D01*
G01*
X33100000Y-70750000D01*
G75*
G02*
X33350000Y-71000000I0J-250000D01*
G01*
G37*
%TD*%
%TO.C,J24*%
X52000000Y-50000000D03*
G36*
G01*
X55350000Y-49250000D02*
X55350000Y-50750000D01*
G75*
G02*
X55100000Y-51000000I-250000J0D01*
G01*
X53900000Y-51000000D01*
G75*
G02*
X53650000Y-50750000I0J250000D01*
G01*
X53650000Y-49250000D01*
G75*
G02*
X53900000Y-49000000I250000J0D01*
G01*
X55100000Y-49000000D01*
G75*
G02*
X55350000Y-49250000I0J-250000D01*
G01*
G37*
%TD*%
%TO.C,J23*%
X39000000Y-71750000D03*
G36*
G01*
X42350000Y-71000000D02*
X42350000Y-72500000D01*
G75*
G02*
X42100000Y-72750000I-250000J0D01*
G01*
X40900000Y-72750000D01*
G75*
G02*
X40650000Y-72500000I0J250000D01*
G01*
X40650000Y-71000000D01*
G75*
G02*
X40900000Y-70750000I250000J0D01*
G01*
X42100000Y-70750000D01*
G75*
G02*
X42350000Y-71000000I0J-250000D01*
G01*
G37*
%TD*%
D12*
%TO.C,J22*%
X29500000Y-34500000D03*
X29500000Y-37500000D03*
X29500000Y-40500000D03*
X29500000Y-43500000D03*
X29500000Y-46500000D03*
X29500000Y-49500000D03*
X26500000Y-34500000D03*
X26500000Y-37500000D03*
X26500000Y-40500000D03*
X26500000Y-43500000D03*
X26500000Y-46500000D03*
G36*
G01*
X27000000Y-50250000D02*
X26000000Y-50250000D01*
G75*
G02*
X25750000Y-50000000I0J250000D01*
G01*
X25750000Y-49000000D01*
G75*
G02*
X26000000Y-48750000I250000J0D01*
G01*
X27000000Y-48750000D01*
G75*
G02*
X27250000Y-49000000I0J-250000D01*
G01*
X27250000Y-50000000D01*
G75*
G02*
X27000000Y-50250000I-250000J0D01*
G01*
G37*
D13*
X30440000Y-31500000D03*
X30440000Y-52500000D03*
%TD*%
D11*
%TO.C,J21*%
X48000000Y-71750000D03*
G36*
G01*
X51350000Y-71000000D02*
X51350000Y-72500000D01*
G75*
G02*
X51100000Y-72750000I-250000J0D01*
G01*
X49900000Y-72750000D01*
G75*
G02*
X49650000Y-72500000I0J250000D01*
G01*
X49650000Y-71000000D01*
G75*
G02*
X49900000Y-70750000I250000J0D01*
G01*
X51100000Y-70750000D01*
G75*
G02*
X51350000Y-71000000I0J-250000D01*
G01*
G37*
%TD*%
D12*
%TO.C,J20*%
X24500000Y-60250000D03*
X27500000Y-60250000D03*
X30500000Y-60250000D03*
X33500000Y-60250000D03*
X36500000Y-60250000D03*
X39500000Y-60250000D03*
X42500000Y-60250000D03*
X45500000Y-60250000D03*
X48500000Y-60250000D03*
X51500000Y-60250000D03*
X54500000Y-60250000D03*
X57500000Y-60250000D03*
X24500000Y-63250000D03*
X27500000Y-63250000D03*
X30500000Y-63250000D03*
X33500000Y-63250000D03*
X36500000Y-63250000D03*
X39500000Y-63250000D03*
X42500000Y-63250000D03*
X45500000Y-63250000D03*
X48500000Y-63250000D03*
X51500000Y-63250000D03*
X54500000Y-63250000D03*
G36*
G01*
X58250000Y-62750000D02*
X58250000Y-63750000D01*
G75*
G02*
X58000000Y-64000000I-250000J0D01*
G01*
X57000000Y-64000000D01*
G75*
G02*
X56750000Y-63750000I0J250000D01*
G01*
X56750000Y-62750000D01*
G75*
G02*
X57000000Y-62500000I250000J0D01*
G01*
X58000000Y-62500000D01*
G75*
G02*
X58250000Y-62750000I0J-250000D01*
G01*
G37*
D13*
X21500000Y-59310000D03*
X60500000Y-59310000D03*
%TD*%
D14*
%TO.C,J19*%
X66260000Y-52250000D03*
X68800000Y-52250000D03*
X71340000Y-52250000D03*
X73880000Y-52250000D03*
X76420000Y-52250000D03*
X78960000Y-52250000D03*
D15*
X81500000Y-52250000D03*
%TD*%
D16*
%TO.C,J18*%
X57000000Y-71750000D03*
X59500000Y-71750000D03*
X62000000Y-71750000D03*
G36*
G01*
X65350000Y-71025000D02*
X65350000Y-72475000D01*
G75*
G02*
X65100000Y-72725000I-250000J0D01*
G01*
X63900000Y-72725000D01*
G75*
G02*
X63650000Y-72475000I0J250000D01*
G01*
X63650000Y-71025000D01*
G75*
G02*
X63900000Y-70775000I250000J0D01*
G01*
X65100000Y-70775000D01*
G75*
G02*
X65350000Y-71025000I0J-250000D01*
G01*
G37*
%TD*%
%TO.C,J17*%
X37500000Y-24250000D03*
X35000000Y-24250000D03*
X32500000Y-24250000D03*
G36*
G01*
X29150000Y-24975000D02*
X29150000Y-23525000D01*
G75*
G02*
X29400000Y-23275000I250000J0D01*
G01*
X30600000Y-23275000D01*
G75*
G02*
X30850000Y-23525000I0J-250000D01*
G01*
X30850000Y-24975000D01*
G75*
G02*
X30600000Y-25225000I-250000J0D01*
G01*
X29400000Y-25225000D01*
G75*
G02*
X29150000Y-24975000I0J250000D01*
G01*
G37*
%TD*%
D10*
%TO.C,J16*%
X80750000Y-64750000D03*
X80750000Y-62250000D03*
G36*
G01*
X80025000Y-58900000D02*
X81475000Y-58900000D01*
G75*
G02*
X81725000Y-59150000I0J-250000D01*
G01*
X81725000Y-60350000D01*
G75*
G02*
X81475000Y-60600000I-250000J0D01*
G01*
X80025000Y-60600000D01*
G75*
G02*
X79775000Y-60350000I0J250000D01*
G01*
X79775000Y-59150000D01*
G75*
G02*
X80025000Y-58900000I250000J0D01*
G01*
G37*
%TD*%
D14*
%TO.C,J15*%
X132500000Y-46830000D03*
X132500000Y-44290000D03*
D15*
X132500000Y-41750000D03*
%TD*%
D11*
%TO.C,J14*%
X116250000Y-45750000D03*
G36*
G01*
X119600000Y-45000000D02*
X119600000Y-46500000D01*
G75*
G02*
X119350000Y-46750000I-250000J0D01*
G01*
X118150000Y-46750000D01*
G75*
G02*
X117900000Y-46500000I0J250000D01*
G01*
X117900000Y-45000000D01*
G75*
G02*
X118150000Y-44750000I250000J0D01*
G01*
X119350000Y-44750000D01*
G75*
G02*
X119600000Y-45000000I0J-250000D01*
G01*
G37*
%TD*%
%TO.C,J13*%
X116250000Y-21000000D03*
G36*
G01*
X119600000Y-20250000D02*
X119600000Y-21750000D01*
G75*
G02*
X119350000Y-22000000I-250000J0D01*
G01*
X118150000Y-22000000D01*
G75*
G02*
X117900000Y-21750000I0J250000D01*
G01*
X117900000Y-20250000D01*
G75*
G02*
X118150000Y-20000000I250000J0D01*
G01*
X119350000Y-20000000D01*
G75*
G02*
X119600000Y-20250000I0J-250000D01*
G01*
G37*
%TD*%
D10*
%TO.C,J12*%
X106000000Y-72000000D03*
X106000000Y-69500000D03*
X106000000Y-67000000D03*
G36*
G01*
X105275000Y-63650000D02*
X106725000Y-63650000D01*
G75*
G02*
X106975000Y-63900000I0J-250000D01*
G01*
X106975000Y-65100000D01*
G75*
G02*
X106725000Y-65350000I-250000J0D01*
G01*
X105275000Y-65350000D01*
G75*
G02*
X105025000Y-65100000I0J250000D01*
G01*
X105025000Y-63900000D01*
G75*
G02*
X105275000Y-63650000I250000J0D01*
G01*
G37*
%TD*%
%TO.C,J11*%
X91000000Y-64500000D03*
X91000000Y-67000000D03*
X91000000Y-69500000D03*
G36*
G01*
X91725000Y-72850000D02*
X90275000Y-72850000D01*
G75*
G02*
X90025000Y-72600000I0J250000D01*
G01*
X90025000Y-71400000D01*
G75*
G02*
X90275000Y-71150000I250000J0D01*
G01*
X91725000Y-71150000D01*
G75*
G02*
X91975000Y-71400000I0J-250000D01*
G01*
X91975000Y-72600000D01*
G75*
G02*
X91725000Y-72850000I-250000J0D01*
G01*
G37*
%TD*%
D11*
%TO.C,J10*%
X125000000Y-45750000D03*
G36*
G01*
X128350000Y-45000000D02*
X128350000Y-46500000D01*
G75*
G02*
X128100000Y-46750000I-250000J0D01*
G01*
X126900000Y-46750000D01*
G75*
G02*
X126650000Y-46500000I0J250000D01*
G01*
X126650000Y-45000000D01*
G75*
G02*
X126900000Y-44750000I250000J0D01*
G01*
X128100000Y-44750000D01*
G75*
G02*
X128350000Y-45000000I0J-250000D01*
G01*
G37*
%TD*%
%TO.C,J9*%
X125000000Y-21000000D03*
G36*
G01*
X128350000Y-20250000D02*
X128350000Y-21750000D01*
G75*
G02*
X128100000Y-22000000I-250000J0D01*
G01*
X126900000Y-22000000D01*
G75*
G02*
X126650000Y-21750000I0J250000D01*
G01*
X126650000Y-20250000D01*
G75*
G02*
X126900000Y-20000000I250000J0D01*
G01*
X128100000Y-20000000D01*
G75*
G02*
X128350000Y-20250000I0J-250000D01*
G01*
G37*
%TD*%
%TO.C,J8*%
X133750000Y-21000000D03*
G36*
G01*
X137100000Y-20250000D02*
X137100000Y-21750000D01*
G75*
G02*
X136850000Y-22000000I-250000J0D01*
G01*
X135650000Y-22000000D01*
G75*
G02*
X135400000Y-21750000I0J250000D01*
G01*
X135400000Y-20250000D01*
G75*
G02*
X135650000Y-20000000I250000J0D01*
G01*
X136850000Y-20000000D01*
G75*
G02*
X137100000Y-20250000I0J-250000D01*
G01*
G37*
%TD*%
D12*
%TO.C,J7*%
X117000000Y-31750000D03*
X120000000Y-31750000D03*
X123000000Y-31750000D03*
X126000000Y-31750000D03*
X129000000Y-31750000D03*
X132000000Y-31750000D03*
X135000000Y-31750000D03*
X138000000Y-31750000D03*
X141000000Y-31750000D03*
X144000000Y-31750000D03*
X147000000Y-31750000D03*
X150000000Y-31750000D03*
X117000000Y-34750000D03*
X120000000Y-34750000D03*
X123000000Y-34750000D03*
X126000000Y-34750000D03*
X129000000Y-34750000D03*
X132000000Y-34750000D03*
X135000000Y-34750000D03*
X138000000Y-34750000D03*
X141000000Y-34750000D03*
X144000000Y-34750000D03*
X147000000Y-34750000D03*
G36*
G01*
X150750000Y-34250000D02*
X150750000Y-35250000D01*
G75*
G02*
X150500000Y-35500000I-250000J0D01*
G01*
X149500000Y-35500000D01*
G75*
G02*
X149250000Y-35250000I0J250000D01*
G01*
X149250000Y-34250000D01*
G75*
G02*
X149500000Y-34000000I250000J0D01*
G01*
X150500000Y-34000000D01*
G75*
G02*
X150750000Y-34250000I0J-250000D01*
G01*
G37*
D13*
X114000000Y-30810000D03*
X153000000Y-30810000D03*
%TD*%
D16*
%TO.C,J6*%
X137250000Y-45750000D03*
X139750000Y-45750000D03*
X142250000Y-45750000D03*
X144750000Y-45750000D03*
X147250000Y-45750000D03*
G36*
G01*
X150600000Y-45025000D02*
X150600000Y-46475000D01*
G75*
G02*
X150350000Y-46725000I-250000J0D01*
G01*
X149150000Y-46725000D01*
G75*
G02*
X148900000Y-46475000I0J250000D01*
G01*
X148900000Y-45025000D01*
G75*
G02*
X149150000Y-44775000I250000J0D01*
G01*
X150350000Y-44775000D01*
G75*
G02*
X150600000Y-45025000I0J-250000D01*
G01*
G37*
%TD*%
D12*
%TO.C,J5*%
X91000000Y-55500000D03*
X94000000Y-55500000D03*
X97000000Y-55500000D03*
X100000000Y-55500000D03*
X103000000Y-55500000D03*
X106000000Y-55500000D03*
X91000000Y-58500000D03*
X94000000Y-58500000D03*
X97000000Y-58500000D03*
X100000000Y-58500000D03*
X103000000Y-58500000D03*
G36*
G01*
X106750000Y-58000000D02*
X106750000Y-59000000D01*
G75*
G02*
X106500000Y-59250000I-250000J0D01*
G01*
X105500000Y-59250000D01*
G75*
G02*
X105250000Y-59000000I0J250000D01*
G01*
X105250000Y-58000000D01*
G75*
G02*
X105500000Y-57750000I250000J0D01*
G01*
X106500000Y-57750000D01*
G75*
G02*
X106750000Y-58000000I0J-250000D01*
G01*
G37*
D13*
X88000000Y-54560000D03*
X109000000Y-54560000D03*
%TD*%
D16*
%TO.C,J4*%
X142500000Y-21000000D03*
X145000000Y-21000000D03*
X147500000Y-21000000D03*
G36*
G01*
X150850000Y-20275000D02*
X150850000Y-21725000D01*
G75*
G02*
X150600000Y-21975000I-250000J0D01*
G01*
X149400000Y-21975000D01*
G75*
G02*
X149150000Y-21725000I0J250000D01*
G01*
X149150000Y-20275000D01*
G75*
G02*
X149400000Y-20025000I250000J0D01*
G01*
X150600000Y-20025000D01*
G75*
G02*
X150850000Y-20275000I0J-250000D01*
G01*
G37*
%TD*%
D10*
%TO.C,J3*%
X157500000Y-20000000D03*
X157500000Y-22500000D03*
G36*
G01*
X158225000Y-25850000D02*
X156775000Y-25850000D01*
G75*
G02*
X156525000Y-25600000I0J250000D01*
G01*
X156525000Y-24400000D01*
G75*
G02*
X156775000Y-24150000I250000J0D01*
G01*
X158225000Y-24150000D01*
G75*
G02*
X158475000Y-24400000I0J-250000D01*
G01*
X158475000Y-25600000D01*
G75*
G02*
X158225000Y-25850000I-250000J0D01*
G01*
G37*
%TD*%
D14*
%TO.C,J2*%
X142880000Y-39750000D03*
X145420000Y-39750000D03*
X147960000Y-39750000D03*
D15*
X150500000Y-39750000D03*
%TD*%
D16*
%TO.C,J1*%
X94750000Y-48750000D03*
X97250000Y-48750000D03*
X99750000Y-48750000D03*
G36*
G01*
X103100000Y-48025000D02*
X103100000Y-49475000D01*
G75*
G02*
X102850000Y-49725000I-250000J0D01*
G01*
X101650000Y-49725000D01*
G75*
G02*
X101400000Y-49475000I0J250000D01*
G01*
X101400000Y-48025000D01*
G75*
G02*
X101650000Y-47775000I250000J0D01*
G01*
X102850000Y-47775000D01*
G75*
G02*
X103100000Y-48025000I0J-250000D01*
G01*
G37*
%TD*%
D17*
%TO.C,H8*%
X81000000Y-72000000D03*
%TD*%
%TO.C,H7*%
X23000000Y-72000000D03*
%TD*%
%TO.C,H6*%
X81000000Y-23000000D03*
%TD*%
%TO.C,H5*%
X23000000Y-23000000D03*
%TD*%
D18*
%TO.C,H4*%
X158000000Y-65000000D03*
%TD*%
%TO.C,H3*%
X118000000Y-65000000D03*
%TD*%
%TO.C,H2*%
X106000000Y-35000000D03*
%TD*%
%TO.C,H1*%
X91000000Y-35000000D03*
%TD*%
D19*
%TO.C,D1*%
X72620000Y-63500000D03*
D20*
X65000000Y-63500000D03*
%TD*%
M02*
