%TF.GenerationSoftware,KiCad,Pcbnew,(5.1.9)-1*%
%TF.CreationDate,2021-02-21T18:32:43+01:00*%
%TF.ProjectId,voron2_pcb,766f726f-6e32-45f7-9063-622e6b696361,rev?*%
%TF.SameCoordinates,Original*%
%TF.FileFunction,Copper,L1,Top*%
%TF.FilePolarity,Positive*%
%FSLAX46Y46*%
G04 Gerber Fmt 4.6, Leading zero omitted, Abs format (unit mm)*
G04 Created by KiCad (PCBNEW (5.1.9)-1) date 2021-02-21 18:32:43*
%MOMM*%
%LPD*%
G01*
G04 APERTURE LIST*
%TA.AperFunction,ComponentPad*%
%ADD10O,1.950000X1.700000*%
%TD*%
%TA.AperFunction,ComponentPad*%
%ADD11O,1.700000X2.000000*%
%TD*%
%TA.AperFunction,ComponentPad*%
%ADD12C,1.500000*%
%TD*%
%TA.AperFunction,ComponentPad*%
%ADD13O,1.700000X1.700000*%
%TD*%
%TA.AperFunction,ComponentPad*%
%ADD14R,1.700000X1.700000*%
%TD*%
%TA.AperFunction,ComponentPad*%
%ADD15O,1.700000X1.950000*%
%TD*%
%TA.AperFunction,ComponentPad*%
%ADD16O,1.600000X1.600000*%
%TD*%
%TA.AperFunction,ComponentPad*%
%ADD17R,1.600000X1.600000*%
%TD*%
%TA.AperFunction,Conductor*%
%ADD18C,0.800000*%
%TD*%
G04 APERTURE END LIST*
D10*
%TO.P,J28,4*%
%TO.N,Net-(J22-Pad9)*%
X43500000Y-44000000D03*
%TO.P,J28,3*%
%TO.N,Net-(J22-Pad8)*%
X43500000Y-46500000D03*
%TO.P,J28,2*%
%TO.N,Net-(J22-Pad7)*%
X43500000Y-49000000D03*
%TO.P,J28,1*%
%TO.N,Net-(J22-Pad1)*%
%TA.AperFunction,ComponentPad*%
G36*
G01*
X44225000Y-52350000D02*
X42775000Y-52350000D01*
G75*
G02*
X42525000Y-52100000I0J250000D01*
G01*
X42525000Y-50900000D01*
G75*
G02*
X42775000Y-50650000I250000J0D01*
G01*
X44225000Y-50650000D01*
G75*
G02*
X44475000Y-50900000I0J-250000D01*
G01*
X44475000Y-52100000D01*
G75*
G02*
X44225000Y-52350000I-250000J0D01*
G01*
G37*
%TD.AperFunction*%
%TD*%
%TO.P,J27,4*%
%TO.N,Net-(J22-Pad6)*%
X43500000Y-30250000D03*
%TO.P,J27,3*%
%TO.N,Net-(J22-Pad12)*%
X43500000Y-32750000D03*
%TO.P,J27,2*%
%TO.N,Net-(J22-Pad11)*%
X43500000Y-35250000D03*
%TO.P,J27,1*%
%TO.N,Net-(J22-Pad10)*%
%TA.AperFunction,ComponentPad*%
G36*
G01*
X44225000Y-38600000D02*
X42775000Y-38600000D01*
G75*
G02*
X42525000Y-38350000I0J250000D01*
G01*
X42525000Y-37150000D01*
G75*
G02*
X42775000Y-36900000I250000J0D01*
G01*
X44225000Y-36900000D01*
G75*
G02*
X44475000Y-37150000I0J-250000D01*
G01*
X44475000Y-38350000D01*
G75*
G02*
X44225000Y-38600000I-250000J0D01*
G01*
G37*
%TD.AperFunction*%
%TD*%
D11*
%TO.P,J26,2*%
%TO.N,Net-(J20-Pad24)*%
X52000000Y-41750000D03*
%TO.P,J26,1*%
%TO.N,Net-(J20-Pad23)*%
%TA.AperFunction,ComponentPad*%
G36*
G01*
X55350000Y-41000000D02*
X55350000Y-42500000D01*
G75*
G02*
X55100000Y-42750000I-250000J0D01*
G01*
X53900000Y-42750000D01*
G75*
G02*
X53650000Y-42500000I0J250000D01*
G01*
X53650000Y-41000000D01*
G75*
G02*
X53900000Y-40750000I250000J0D01*
G01*
X55100000Y-40750000D01*
G75*
G02*
X55350000Y-41000000I0J-250000D01*
G01*
G37*
%TD.AperFunction*%
%TD*%
%TO.P,J25,2*%
%TO.N,Net-(J20-Pad12)*%
X30000000Y-71750000D03*
%TO.P,J25,1*%
%TO.N,Net-(J20-Pad11)*%
%TA.AperFunction,ComponentPad*%
G36*
G01*
X33350000Y-71000000D02*
X33350000Y-72500000D01*
G75*
G02*
X33100000Y-72750000I-250000J0D01*
G01*
X31900000Y-72750000D01*
G75*
G02*
X31650000Y-72500000I0J250000D01*
G01*
X31650000Y-71000000D01*
G75*
G02*
X31900000Y-70750000I250000J0D01*
G01*
X33100000Y-70750000D01*
G75*
G02*
X33350000Y-71000000I0J-250000D01*
G01*
G37*
%TD.AperFunction*%
%TD*%
%TO.P,J24,2*%
%TO.N,Net-(J20-Pad22)*%
X52000000Y-50000000D03*
%TO.P,J24,1*%
%TO.N,Net-(J20-Pad21)*%
%TA.AperFunction,ComponentPad*%
G36*
G01*
X55350000Y-49250000D02*
X55350000Y-50750000D01*
G75*
G02*
X55100000Y-51000000I-250000J0D01*
G01*
X53900000Y-51000000D01*
G75*
G02*
X53650000Y-50750000I0J250000D01*
G01*
X53650000Y-49250000D01*
G75*
G02*
X53900000Y-49000000I250000J0D01*
G01*
X55100000Y-49000000D01*
G75*
G02*
X55350000Y-49250000I0J-250000D01*
G01*
G37*
%TD.AperFunction*%
%TD*%
%TO.P,J23,2*%
%TO.N,Net-(J20-Pad10)*%
X39000000Y-71750000D03*
%TO.P,J23,1*%
%TO.N,Net-(J20-Pad9)*%
%TA.AperFunction,ComponentPad*%
G36*
G01*
X42350000Y-71000000D02*
X42350000Y-72500000D01*
G75*
G02*
X42100000Y-72750000I-250000J0D01*
G01*
X40900000Y-72750000D01*
G75*
G02*
X40650000Y-72500000I0J250000D01*
G01*
X40650000Y-71000000D01*
G75*
G02*
X40900000Y-70750000I250000J0D01*
G01*
X42100000Y-70750000D01*
G75*
G02*
X42350000Y-71000000I0J-250000D01*
G01*
G37*
%TD.AperFunction*%
%TD*%
D12*
%TO.P,J22,12*%
%TO.N,Net-(J22-Pad12)*%
X29500000Y-34500000D03*
%TO.P,J22,11*%
%TO.N,Net-(J22-Pad11)*%
X29500000Y-37500000D03*
%TO.P,J22,10*%
%TO.N,Net-(J22-Pad10)*%
X29500000Y-40500000D03*
%TO.P,J22,9*%
%TO.N,Net-(J22-Pad9)*%
X29500000Y-43500000D03*
%TO.P,J22,8*%
%TO.N,Net-(J22-Pad8)*%
X29500000Y-46500000D03*
%TO.P,J22,7*%
%TO.N,Net-(J22-Pad7)*%
X29500000Y-49500000D03*
%TO.P,J22,6*%
%TO.N,Net-(J22-Pad6)*%
X26500000Y-34500000D03*
%TO.P,J22,5*%
%TO.N,Net-(J17-Pad4)*%
X26500000Y-37500000D03*
%TO.P,J22,4*%
%TO.N,Net-(J17-Pad3)*%
X26500000Y-40500000D03*
%TO.P,J22,3*%
%TO.N,Net-(J17-Pad2)*%
X26500000Y-43500000D03*
%TO.P,J22,2*%
%TO.N,Net-(J17-Pad1)*%
X26500000Y-46500000D03*
%TO.P,J22,1*%
%TO.N,Net-(J22-Pad1)*%
%TA.AperFunction,ComponentPad*%
G36*
G01*
X27000000Y-50250000D02*
X26000000Y-50250000D01*
G75*
G02*
X25750000Y-50000000I0J250000D01*
G01*
X25750000Y-49000000D01*
G75*
G02*
X26000000Y-48750000I250000J0D01*
G01*
X27000000Y-48750000D01*
G75*
G02*
X27250000Y-49000000I0J-250000D01*
G01*
X27250000Y-50000000D01*
G75*
G02*
X27000000Y-50250000I-250000J0D01*
G01*
G37*
%TD.AperFunction*%
%TD*%
D11*
%TO.P,J21,2*%
%TO.N,Net-(J20-Pad8)*%
X48000000Y-71750000D03*
%TO.P,J21,1*%
%TO.N,Net-(J20-Pad7)*%
%TA.AperFunction,ComponentPad*%
G36*
G01*
X51350000Y-71000000D02*
X51350000Y-72500000D01*
G75*
G02*
X51100000Y-72750000I-250000J0D01*
G01*
X49900000Y-72750000D01*
G75*
G02*
X49650000Y-72500000I0J250000D01*
G01*
X49650000Y-71000000D01*
G75*
G02*
X49900000Y-70750000I250000J0D01*
G01*
X51100000Y-70750000D01*
G75*
G02*
X51350000Y-71000000I0J-250000D01*
G01*
G37*
%TD.AperFunction*%
%TD*%
D12*
%TO.P,J20,24*%
%TO.N,Net-(J20-Pad24)*%
X24500000Y-60250000D03*
%TO.P,J20,23*%
%TO.N,Net-(J20-Pad23)*%
X27500000Y-60250000D03*
%TO.P,J20,22*%
%TO.N,Net-(J20-Pad22)*%
X30500000Y-60250000D03*
%TO.P,J20,21*%
%TO.N,Net-(J20-Pad21)*%
X33500000Y-60250000D03*
%TO.P,J20,20*%
%TO.N,Net-(J19-Pad7)*%
X36500000Y-60250000D03*
%TO.P,J20,19*%
%TO.N,Net-(J19-Pad6)*%
X39500000Y-60250000D03*
%TO.P,J20,18*%
%TO.N,Net-(J19-Pad5)*%
X42500000Y-60250000D03*
%TO.P,J20,17*%
%TO.N,Net-(J19-Pad4)*%
X45500000Y-60250000D03*
%TO.P,J20,16*%
%TO.N,Net-(J19-Pad3)*%
X48500000Y-60250000D03*
%TO.P,J20,15*%
%TO.N,Net-(J19-Pad2)*%
X51500000Y-60250000D03*
%TO.P,J20,14*%
%TO.N,Net-(J19-Pad1)*%
X54500000Y-60250000D03*
%TO.P,J20,13*%
%TO.N,Net-(J16-Pad1)*%
X57500000Y-60250000D03*
%TO.P,J20,12*%
%TO.N,Net-(J20-Pad12)*%
X24500000Y-63250000D03*
%TO.P,J20,11*%
%TO.N,Net-(J20-Pad11)*%
X27500000Y-63250000D03*
%TO.P,J20,10*%
%TO.N,Net-(J20-Pad10)*%
X30500000Y-63250000D03*
%TO.P,J20,9*%
%TO.N,Net-(J20-Pad9)*%
X33500000Y-63250000D03*
%TO.P,J20,8*%
%TO.N,Net-(J20-Pad8)*%
X36500000Y-63250000D03*
%TO.P,J20,7*%
%TO.N,Net-(J20-Pad7)*%
X39500000Y-63250000D03*
%TO.P,J20,6*%
%TO.N,Net-(J18-Pad4)*%
X42500000Y-63250000D03*
%TO.P,J20,5*%
%TO.N,Net-(J18-Pad3)*%
X45500000Y-63250000D03*
%TO.P,J20,4*%
%TO.N,Net-(J18-Pad2)*%
X48500000Y-63250000D03*
%TO.P,J20,3*%
%TO.N,Net-(J18-Pad1)*%
X51500000Y-63250000D03*
%TO.P,J20,2*%
%TO.N,Net-(J16-Pad3)*%
X54500000Y-63250000D03*
%TO.P,J20,1*%
%TO.N,Net-(D1-Pad1)*%
%TA.AperFunction,ComponentPad*%
G36*
G01*
X58250000Y-62750000D02*
X58250000Y-63750000D01*
G75*
G02*
X58000000Y-64000000I-250000J0D01*
G01*
X57000000Y-64000000D01*
G75*
G02*
X56750000Y-63750000I0J250000D01*
G01*
X56750000Y-62750000D01*
G75*
G02*
X57000000Y-62500000I250000J0D01*
G01*
X58000000Y-62500000D01*
G75*
G02*
X58250000Y-62750000I0J-250000D01*
G01*
G37*
%TD.AperFunction*%
%TD*%
D13*
%TO.P,J19,7*%
%TO.N,Net-(J19-Pad7)*%
X66260000Y-52250000D03*
%TO.P,J19,6*%
%TO.N,Net-(J19-Pad6)*%
X68800000Y-52250000D03*
%TO.P,J19,5*%
%TO.N,Net-(J19-Pad5)*%
X71340000Y-52250000D03*
%TO.P,J19,4*%
%TO.N,Net-(J19-Pad4)*%
X73880000Y-52250000D03*
%TO.P,J19,3*%
%TO.N,Net-(J19-Pad3)*%
X76420000Y-52250000D03*
%TO.P,J19,2*%
%TO.N,Net-(J19-Pad2)*%
X78960000Y-52250000D03*
D14*
%TO.P,J19,1*%
%TO.N,Net-(J19-Pad1)*%
X81500000Y-52250000D03*
%TD*%
D15*
%TO.P,J18,4*%
%TO.N,Net-(J18-Pad4)*%
X57000000Y-71750000D03*
%TO.P,J18,3*%
%TO.N,Net-(J18-Pad3)*%
X59500000Y-71750000D03*
%TO.P,J18,2*%
%TO.N,Net-(J18-Pad2)*%
X62000000Y-71750000D03*
%TO.P,J18,1*%
%TO.N,Net-(J18-Pad1)*%
%TA.AperFunction,ComponentPad*%
G36*
G01*
X65350000Y-71025000D02*
X65350000Y-72475000D01*
G75*
G02*
X65100000Y-72725000I-250000J0D01*
G01*
X63900000Y-72725000D01*
G75*
G02*
X63650000Y-72475000I0J250000D01*
G01*
X63650000Y-71025000D01*
G75*
G02*
X63900000Y-70775000I250000J0D01*
G01*
X65100000Y-70775000D01*
G75*
G02*
X65350000Y-71025000I0J-250000D01*
G01*
G37*
%TD.AperFunction*%
%TD*%
%TO.P,J17,4*%
%TO.N,Net-(J17-Pad4)*%
X37500000Y-24250000D03*
%TO.P,J17,3*%
%TO.N,Net-(J17-Pad3)*%
X35000000Y-24250000D03*
%TO.P,J17,2*%
%TO.N,Net-(J17-Pad2)*%
X32500000Y-24250000D03*
%TO.P,J17,1*%
%TO.N,Net-(J17-Pad1)*%
%TA.AperFunction,ComponentPad*%
G36*
G01*
X29150000Y-24975000D02*
X29150000Y-23525000D01*
G75*
G02*
X29400000Y-23275000I250000J0D01*
G01*
X30600000Y-23275000D01*
G75*
G02*
X30850000Y-23525000I0J-250000D01*
G01*
X30850000Y-24975000D01*
G75*
G02*
X30600000Y-25225000I-250000J0D01*
G01*
X29400000Y-25225000D01*
G75*
G02*
X29150000Y-24975000I0J250000D01*
G01*
G37*
%TD.AperFunction*%
%TD*%
D10*
%TO.P,J16,3*%
%TO.N,Net-(J16-Pad3)*%
X80750000Y-64750000D03*
%TO.P,J16,2*%
%TO.N,Net-(D1-Pad2)*%
X80750000Y-62250000D03*
%TO.P,J16,1*%
%TO.N,Net-(J16-Pad1)*%
%TA.AperFunction,ComponentPad*%
G36*
G01*
X80025000Y-58900000D02*
X81475000Y-58900000D01*
G75*
G02*
X81725000Y-59150000I0J-250000D01*
G01*
X81725000Y-60350000D01*
G75*
G02*
X81475000Y-60600000I-250000J0D01*
G01*
X80025000Y-60600000D01*
G75*
G02*
X79775000Y-60350000I0J250000D01*
G01*
X79775000Y-59150000D01*
G75*
G02*
X80025000Y-58900000I250000J0D01*
G01*
G37*
%TD.AperFunction*%
%TD*%
D13*
%TO.P,J15,3*%
%TO.N,Net-(J15-Pad3)*%
X132500000Y-46830000D03*
%TO.P,J15,2*%
%TO.N,Net-(J15-Pad2)*%
X132500000Y-44290000D03*
D14*
%TO.P,J15,1*%
%TO.N,Net-(J15-Pad1)*%
X132500000Y-41750000D03*
%TD*%
D11*
%TO.P,J14,2*%
%TO.N,Net-(J14-Pad2)*%
X116250000Y-45750000D03*
%TO.P,J14,1*%
%TO.N,Net-(J14-Pad1)*%
%TA.AperFunction,ComponentPad*%
G36*
G01*
X119600000Y-45000000D02*
X119600000Y-46500000D01*
G75*
G02*
X119350000Y-46750000I-250000J0D01*
G01*
X118150000Y-46750000D01*
G75*
G02*
X117900000Y-46500000I0J250000D01*
G01*
X117900000Y-45000000D01*
G75*
G02*
X118150000Y-44750000I250000J0D01*
G01*
X119350000Y-44750000D01*
G75*
G02*
X119600000Y-45000000I0J-250000D01*
G01*
G37*
%TD.AperFunction*%
%TD*%
%TO.P,J13,2*%
%TO.N,Net-(J13-Pad2)*%
X116250000Y-21000000D03*
%TO.P,J13,1*%
%TO.N,Net-(J13-Pad1)*%
%TA.AperFunction,ComponentPad*%
G36*
G01*
X119600000Y-20250000D02*
X119600000Y-21750000D01*
G75*
G02*
X119350000Y-22000000I-250000J0D01*
G01*
X118150000Y-22000000D01*
G75*
G02*
X117900000Y-21750000I0J250000D01*
G01*
X117900000Y-20250000D01*
G75*
G02*
X118150000Y-20000000I250000J0D01*
G01*
X119350000Y-20000000D01*
G75*
G02*
X119600000Y-20250000I0J-250000D01*
G01*
G37*
%TD.AperFunction*%
%TD*%
D10*
%TO.P,J12,4*%
%TO.N,Net-(J12-Pad4)*%
X106000000Y-72000000D03*
%TO.P,J12,3*%
%TO.N,Net-(J12-Pad3)*%
X106000000Y-69500000D03*
%TO.P,J12,2*%
%TO.N,Net-(J12-Pad2)*%
X106000000Y-67000000D03*
%TO.P,J12,1*%
%TO.N,Net-(J12-Pad1)*%
%TA.AperFunction,ComponentPad*%
G36*
G01*
X105275000Y-63650000D02*
X106725000Y-63650000D01*
G75*
G02*
X106975000Y-63900000I0J-250000D01*
G01*
X106975000Y-65100000D01*
G75*
G02*
X106725000Y-65350000I-250000J0D01*
G01*
X105275000Y-65350000D01*
G75*
G02*
X105025000Y-65100000I0J250000D01*
G01*
X105025000Y-63900000D01*
G75*
G02*
X105275000Y-63650000I250000J0D01*
G01*
G37*
%TD.AperFunction*%
%TD*%
%TO.P,J11,4*%
%TO.N,Net-(J11-Pad4)*%
X91000000Y-64500000D03*
%TO.P,J11,3*%
%TO.N,Net-(J11-Pad3)*%
X91000000Y-67000000D03*
%TO.P,J11,2*%
%TO.N,Net-(J11-Pad2)*%
X91000000Y-69500000D03*
%TO.P,J11,1*%
%TO.N,Net-(J11-Pad1)*%
%TA.AperFunction,ComponentPad*%
G36*
G01*
X91725000Y-72850000D02*
X90275000Y-72850000D01*
G75*
G02*
X90025000Y-72600000I0J250000D01*
G01*
X90025000Y-71400000D01*
G75*
G02*
X90275000Y-71150000I250000J0D01*
G01*
X91725000Y-71150000D01*
G75*
G02*
X91975000Y-71400000I0J-250000D01*
G01*
X91975000Y-72600000D01*
G75*
G02*
X91725000Y-72850000I-250000J0D01*
G01*
G37*
%TD.AperFunction*%
%TD*%
D11*
%TO.P,J10,2*%
%TO.N,Net-(J10-Pad2)*%
X125000000Y-45750000D03*
%TO.P,J10,1*%
%TO.N,Net-(J10-Pad1)*%
%TA.AperFunction,ComponentPad*%
G36*
G01*
X128350000Y-45000000D02*
X128350000Y-46500000D01*
G75*
G02*
X128100000Y-46750000I-250000J0D01*
G01*
X126900000Y-46750000D01*
G75*
G02*
X126650000Y-46500000I0J250000D01*
G01*
X126650000Y-45000000D01*
G75*
G02*
X126900000Y-44750000I250000J0D01*
G01*
X128100000Y-44750000D01*
G75*
G02*
X128350000Y-45000000I0J-250000D01*
G01*
G37*
%TD.AperFunction*%
%TD*%
%TO.P,J9,2*%
%TO.N,Net-(J7-Pad22)*%
X125000000Y-21000000D03*
%TO.P,J9,1*%
%TO.N,Net-(J7-Pad21)*%
%TA.AperFunction,ComponentPad*%
G36*
G01*
X128350000Y-20250000D02*
X128350000Y-21750000D01*
G75*
G02*
X128100000Y-22000000I-250000J0D01*
G01*
X126900000Y-22000000D01*
G75*
G02*
X126650000Y-21750000I0J250000D01*
G01*
X126650000Y-20250000D01*
G75*
G02*
X126900000Y-20000000I250000J0D01*
G01*
X128100000Y-20000000D01*
G75*
G02*
X128350000Y-20250000I0J-250000D01*
G01*
G37*
%TD.AperFunction*%
%TD*%
%TO.P,J8,2*%
%TO.N,Net-(J7-Pad20)*%
X133750000Y-21000000D03*
%TO.P,J8,1*%
%TO.N,Net-(J7-Pad19)*%
%TA.AperFunction,ComponentPad*%
G36*
G01*
X137100000Y-20250000D02*
X137100000Y-21750000D01*
G75*
G02*
X136850000Y-22000000I-250000J0D01*
G01*
X135650000Y-22000000D01*
G75*
G02*
X135400000Y-21750000I0J250000D01*
G01*
X135400000Y-20250000D01*
G75*
G02*
X135650000Y-20000000I250000J0D01*
G01*
X136850000Y-20000000D01*
G75*
G02*
X137100000Y-20250000I0J-250000D01*
G01*
G37*
%TD.AperFunction*%
%TD*%
D12*
%TO.P,J7,24*%
%TO.N,Net-(J13-Pad2)*%
X117000000Y-31750000D03*
%TO.P,J7,23*%
%TO.N,Net-(J13-Pad1)*%
X120000000Y-31750000D03*
%TO.P,J7,22*%
%TO.N,Net-(J7-Pad22)*%
X123000000Y-31750000D03*
%TO.P,J7,21*%
%TO.N,Net-(J7-Pad21)*%
X126000000Y-31750000D03*
%TO.P,J7,20*%
%TO.N,Net-(J7-Pad20)*%
X129000000Y-31750000D03*
%TO.P,J7,19*%
%TO.N,Net-(J7-Pad19)*%
X132000000Y-31750000D03*
%TO.P,J7,18*%
%TO.N,Net-(J4-Pad4)*%
X135000000Y-31750000D03*
%TO.P,J7,17*%
%TO.N,Net-(J4-Pad3)*%
X138000000Y-31750000D03*
%TO.P,J7,16*%
%TO.N,Net-(J4-Pad2)*%
X141000000Y-31750000D03*
%TO.P,J7,15*%
%TO.N,Net-(J4-Pad1)*%
X144000000Y-31750000D03*
%TO.P,J7,14*%
%TO.N,Net-(J3-Pad3)*%
X147000000Y-31750000D03*
%TO.P,J7,13*%
%TO.N,Net-(J3-Pad2)*%
X150000000Y-31750000D03*
%TO.P,J7,12*%
%TO.N,Net-(J14-Pad2)*%
X117000000Y-34750000D03*
%TO.P,J7,11*%
%TO.N,Net-(J14-Pad1)*%
X120000000Y-34750000D03*
%TO.P,J7,10*%
%TO.N,Net-(J10-Pad2)*%
X123000000Y-34750000D03*
%TO.P,J7,9*%
%TO.N,Net-(J10-Pad1)*%
X126000000Y-34750000D03*
%TO.P,J7,8*%
%TO.N,Net-(J15-Pad3)*%
X129000000Y-34750000D03*
%TO.P,J7,7*%
%TO.N,Net-(J15-Pad2)*%
X132000000Y-34750000D03*
%TO.P,J7,6*%
%TO.N,Net-(J15-Pad1)*%
X135000000Y-34750000D03*
%TO.P,J7,5*%
%TO.N,Net-(J2-Pad4)*%
X138000000Y-34750000D03*
%TO.P,J7,4*%
%TO.N,Net-(J2-Pad3)*%
X141000000Y-34750000D03*
%TO.P,J7,3*%
%TO.N,Net-(J2-Pad2)*%
X144000000Y-34750000D03*
%TO.P,J7,2*%
%TO.N,Net-(J2-Pad1)*%
X147000000Y-34750000D03*
%TO.P,J7,1*%
%TO.N,Net-(J3-Pad1)*%
%TA.AperFunction,ComponentPad*%
G36*
G01*
X150750000Y-34250000D02*
X150750000Y-35250000D01*
G75*
G02*
X150500000Y-35500000I-250000J0D01*
G01*
X149500000Y-35500000D01*
G75*
G02*
X149250000Y-35250000I0J250000D01*
G01*
X149250000Y-34250000D01*
G75*
G02*
X149500000Y-34000000I250000J0D01*
G01*
X150500000Y-34000000D01*
G75*
G02*
X150750000Y-34250000I0J-250000D01*
G01*
G37*
%TD.AperFunction*%
%TD*%
D15*
%TO.P,J6,6*%
%TO.N,Net-(J15-Pad3)*%
X137250000Y-45750000D03*
%TO.P,J6,5*%
%TO.N,Net-(J15-Pad2)*%
X139750000Y-45750000D03*
%TO.P,J6,4*%
%TO.N,Net-(J15-Pad1)*%
X142250000Y-45750000D03*
%TO.P,J6,3*%
%TO.N,Net-(J2-Pad4)*%
X144750000Y-45750000D03*
%TO.P,J6,2*%
%TO.N,Net-(J2-Pad3)*%
X147250000Y-45750000D03*
%TO.P,J6,1*%
%TO.N,Net-(J2-Pad2)*%
%TA.AperFunction,ComponentPad*%
G36*
G01*
X150600000Y-45025000D02*
X150600000Y-46475000D01*
G75*
G02*
X150350000Y-46725000I-250000J0D01*
G01*
X149150000Y-46725000D01*
G75*
G02*
X148900000Y-46475000I0J250000D01*
G01*
X148900000Y-45025000D01*
G75*
G02*
X149150000Y-44775000I250000J0D01*
G01*
X150350000Y-44775000D01*
G75*
G02*
X150600000Y-45025000I0J-250000D01*
G01*
G37*
%TD.AperFunction*%
%TD*%
D12*
%TO.P,J5,12*%
%TO.N,Net-(J11-Pad4)*%
X91000000Y-55500000D03*
%TO.P,J5,11*%
%TO.N,Net-(J1-Pad4)*%
X94000000Y-55500000D03*
%TO.P,J5,10*%
%TO.N,Net-(J1-Pad3)*%
X97000000Y-55500000D03*
%TO.P,J5,9*%
%TO.N,Net-(J1-Pad2)*%
X100000000Y-55500000D03*
%TO.P,J5,8*%
%TO.N,Net-(J1-Pad1)*%
X103000000Y-55500000D03*
%TO.P,J5,7*%
%TO.N,Net-(J12-Pad1)*%
X106000000Y-55500000D03*
%TO.P,J5,6*%
%TO.N,Net-(J11-Pad3)*%
X91000000Y-58500000D03*
%TO.P,J5,5*%
%TO.N,Net-(J11-Pad2)*%
X94000000Y-58500000D03*
%TO.P,J5,4*%
%TO.N,Net-(J11-Pad1)*%
X97000000Y-58500000D03*
%TO.P,J5,3*%
%TO.N,Net-(J12-Pad4)*%
X100000000Y-58500000D03*
%TO.P,J5,2*%
%TO.N,Net-(J12-Pad3)*%
X103000000Y-58500000D03*
%TO.P,J5,1*%
%TO.N,Net-(J12-Pad2)*%
%TA.AperFunction,ComponentPad*%
G36*
G01*
X106750000Y-58000000D02*
X106750000Y-59000000D01*
G75*
G02*
X106500000Y-59250000I-250000J0D01*
G01*
X105500000Y-59250000D01*
G75*
G02*
X105250000Y-59000000I0J250000D01*
G01*
X105250000Y-58000000D01*
G75*
G02*
X105500000Y-57750000I250000J0D01*
G01*
X106500000Y-57750000D01*
G75*
G02*
X106750000Y-58000000I0J-250000D01*
G01*
G37*
%TD.AperFunction*%
%TD*%
D15*
%TO.P,J4,4*%
%TO.N,Net-(J4-Pad4)*%
X142500000Y-21000000D03*
%TO.P,J4,3*%
%TO.N,Net-(J4-Pad3)*%
X145000000Y-21000000D03*
%TO.P,J4,2*%
%TO.N,Net-(J4-Pad2)*%
X147500000Y-21000000D03*
%TO.P,J4,1*%
%TO.N,Net-(J4-Pad1)*%
%TA.AperFunction,ComponentPad*%
G36*
G01*
X150850000Y-20275000D02*
X150850000Y-21725000D01*
G75*
G02*
X150600000Y-21975000I-250000J0D01*
G01*
X149400000Y-21975000D01*
G75*
G02*
X149150000Y-21725000I0J250000D01*
G01*
X149150000Y-20275000D01*
G75*
G02*
X149400000Y-20025000I250000J0D01*
G01*
X150600000Y-20025000D01*
G75*
G02*
X150850000Y-20275000I0J-250000D01*
G01*
G37*
%TD.AperFunction*%
%TD*%
D10*
%TO.P,J3,3*%
%TO.N,Net-(J3-Pad3)*%
X157500000Y-20000000D03*
%TO.P,J3,2*%
%TO.N,Net-(J3-Pad2)*%
X157500000Y-22500000D03*
%TO.P,J3,1*%
%TO.N,Net-(J3-Pad1)*%
%TA.AperFunction,ComponentPad*%
G36*
G01*
X158225000Y-25850000D02*
X156775000Y-25850000D01*
G75*
G02*
X156525000Y-25600000I0J250000D01*
G01*
X156525000Y-24400000D01*
G75*
G02*
X156775000Y-24150000I250000J0D01*
G01*
X158225000Y-24150000D01*
G75*
G02*
X158475000Y-24400000I0J-250000D01*
G01*
X158475000Y-25600000D01*
G75*
G02*
X158225000Y-25850000I-250000J0D01*
G01*
G37*
%TD.AperFunction*%
%TD*%
D13*
%TO.P,J2,4*%
%TO.N,Net-(J2-Pad4)*%
X142880000Y-39750000D03*
%TO.P,J2,3*%
%TO.N,Net-(J2-Pad3)*%
X145420000Y-39750000D03*
%TO.P,J2,2*%
%TO.N,Net-(J2-Pad2)*%
X147960000Y-39750000D03*
D14*
%TO.P,J2,1*%
%TO.N,Net-(J2-Pad1)*%
X150500000Y-39750000D03*
%TD*%
D15*
%TO.P,J1,4*%
%TO.N,Net-(J1-Pad4)*%
X94750000Y-48750000D03*
%TO.P,J1,3*%
%TO.N,Net-(J1-Pad3)*%
X97250000Y-48750000D03*
%TO.P,J1,2*%
%TO.N,Net-(J1-Pad2)*%
X99750000Y-48750000D03*
%TO.P,J1,1*%
%TO.N,Net-(J1-Pad1)*%
%TA.AperFunction,ComponentPad*%
G36*
G01*
X103100000Y-48025000D02*
X103100000Y-49475000D01*
G75*
G02*
X102850000Y-49725000I-250000J0D01*
G01*
X101650000Y-49725000D01*
G75*
G02*
X101400000Y-49475000I0J250000D01*
G01*
X101400000Y-48025000D01*
G75*
G02*
X101650000Y-47775000I250000J0D01*
G01*
X102850000Y-47775000D01*
G75*
G02*
X103100000Y-48025000I0J-250000D01*
G01*
G37*
%TD.AperFunction*%
%TD*%
D16*
%TO.P,D1,2*%
%TO.N,Net-(D1-Pad2)*%
X72620000Y-63500000D03*
D17*
%TO.P,D1,1*%
%TO.N,Net-(D1-Pad1)*%
X65000000Y-63500000D03*
%TD*%
D18*
%TO.N,Net-(J16-Pad3)*%
X54500000Y-63250000D02*
X58000000Y-66750000D01*
X78750000Y-66750000D02*
X80750000Y-64750000D01*
X58000000Y-66750000D02*
X78750000Y-66750000D01*
%TO.N,Net-(J19-Pad3)*%
X74170000Y-54500000D02*
X76420000Y-52250000D01*
X51000000Y-54500000D02*
X74170000Y-54500000D01*
X48500000Y-57000000D02*
X51000000Y-54500000D01*
X48500000Y-60250000D02*
X48500000Y-57000000D01*
%TO.N,Net-(J19-Pad2)*%
X75709990Y-55500010D02*
X78960000Y-52250000D01*
X52249990Y-55500010D02*
X75709990Y-55500010D01*
X51500000Y-56250000D02*
X52249990Y-55500010D01*
X51500000Y-60250000D02*
X51500000Y-56250000D01*
%TO.N,Net-(J19-Pad1)*%
X54500000Y-60250000D02*
X54500000Y-57750000D01*
X77249980Y-56500020D02*
X81500000Y-52250000D01*
X55749980Y-56500020D02*
X77249980Y-56500020D01*
X54500000Y-57750000D02*
X55749980Y-56500020D01*
%TD*%
M02*
