%TF.GenerationSoftware,KiCad,Pcbnew,(5.1.9)-1*%
%TF.CreationDate,2021-02-21T18:32:43+01:00*%
%TF.ProjectId,voron2_pcb,766f726f-6e32-45f7-9063-622e6b696361,rev?*%
%TF.SameCoordinates,Original*%
%TF.FileFunction,Legend,Top*%
%TF.FilePolarity,Positive*%
%FSLAX46Y46*%
G04 Gerber Fmt 4.6, Leading zero omitted, Abs format (unit mm)*
G04 Created by KiCad (PCBNEW (5.1.9)-1) date 2021-02-21 18:32:43*
%MOMM*%
%LPD*%
G01*
G04 APERTURE LIST*
%ADD10C,0.120000*%
%ADD11C,0.150000*%
G04 APERTURE END LIST*
D10*
X113000000Y-55000000D02*
X163000000Y-55000000D01*
X111000000Y-45000000D02*
X86000000Y-45000000D01*
%TO.C,J28*%
X40750000Y-54350000D02*
X42000000Y-54350000D01*
X40750000Y-53100000D02*
X40750000Y-54350000D01*
X46250000Y-42200000D02*
X46250000Y-47750000D01*
X43300000Y-42200000D02*
X46250000Y-42200000D01*
X43300000Y-41450000D02*
X43300000Y-42200000D01*
X46250000Y-53300000D02*
X46250000Y-47750000D01*
X43300000Y-53300000D02*
X46250000Y-53300000D01*
X43300000Y-54050000D02*
X43300000Y-53300000D01*
X41050000Y-41450000D02*
X41050000Y-43250000D01*
X41800000Y-41450000D02*
X41050000Y-41450000D01*
X41800000Y-43250000D02*
X41800000Y-41450000D01*
X41050000Y-43250000D02*
X41800000Y-43250000D01*
X41050000Y-52250000D02*
X41050000Y-54050000D01*
X41800000Y-52250000D02*
X41050000Y-52250000D01*
X41800000Y-54050000D02*
X41800000Y-52250000D01*
X41050000Y-54050000D02*
X41800000Y-54050000D01*
X41050000Y-44750000D02*
X41050000Y-50750000D01*
X41800000Y-44750000D02*
X41050000Y-44750000D01*
X41800000Y-50750000D02*
X41800000Y-44750000D01*
X41050000Y-50750000D02*
X41800000Y-50750000D01*
X41040000Y-41440000D02*
X41040000Y-54060000D01*
X47010000Y-41440000D02*
X41040000Y-41440000D01*
X47010000Y-54060000D02*
X47010000Y-41440000D01*
X41040000Y-54060000D02*
X47010000Y-54060000D01*
%TO.C,J27*%
X40750000Y-40600000D02*
X42000000Y-40600000D01*
X40750000Y-39350000D02*
X40750000Y-40600000D01*
X46250000Y-28450000D02*
X46250000Y-34000000D01*
X43300000Y-28450000D02*
X46250000Y-28450000D01*
X43300000Y-27700000D02*
X43300000Y-28450000D01*
X46250000Y-39550000D02*
X46250000Y-34000000D01*
X43300000Y-39550000D02*
X46250000Y-39550000D01*
X43300000Y-40300000D02*
X43300000Y-39550000D01*
X41050000Y-27700000D02*
X41050000Y-29500000D01*
X41800000Y-27700000D02*
X41050000Y-27700000D01*
X41800000Y-29500000D02*
X41800000Y-27700000D01*
X41050000Y-29500000D02*
X41800000Y-29500000D01*
X41050000Y-38500000D02*
X41050000Y-40300000D01*
X41800000Y-38500000D02*
X41050000Y-38500000D01*
X41800000Y-40300000D02*
X41800000Y-38500000D01*
X41050000Y-40300000D02*
X41800000Y-40300000D01*
X41050000Y-31000000D02*
X41050000Y-37000000D01*
X41800000Y-31000000D02*
X41050000Y-31000000D01*
X41800000Y-37000000D02*
X41800000Y-31000000D01*
X41050000Y-37000000D02*
X41800000Y-37000000D01*
X41040000Y-27690000D02*
X41040000Y-40310000D01*
X47010000Y-27690000D02*
X41040000Y-27690000D01*
X47010000Y-40310000D02*
X47010000Y-27690000D01*
X41040000Y-40310000D02*
X47010000Y-40310000D01*
%TO.C,J26*%
X57350000Y-44500000D02*
X57350000Y-43250000D01*
X56100000Y-44500000D02*
X57350000Y-44500000D01*
X50200000Y-39000000D02*
X53250000Y-39000000D01*
X50200000Y-41950000D02*
X50200000Y-39000000D01*
X49450000Y-41950000D02*
X50200000Y-41950000D01*
X56300000Y-39000000D02*
X53250000Y-39000000D01*
X56300000Y-41950000D02*
X56300000Y-39000000D01*
X57050000Y-41950000D02*
X56300000Y-41950000D01*
X49450000Y-44200000D02*
X51250000Y-44200000D01*
X49450000Y-43450000D02*
X49450000Y-44200000D01*
X51250000Y-43450000D02*
X49450000Y-43450000D01*
X51250000Y-44200000D02*
X51250000Y-43450000D01*
X55250000Y-44200000D02*
X57050000Y-44200000D01*
X55250000Y-43450000D02*
X55250000Y-44200000D01*
X57050000Y-43450000D02*
X55250000Y-43450000D01*
X57050000Y-44200000D02*
X57050000Y-43450000D01*
X52750000Y-44200000D02*
X53750000Y-44200000D01*
X52750000Y-43450000D02*
X52750000Y-44200000D01*
X53750000Y-43450000D02*
X52750000Y-43450000D01*
X53750000Y-44200000D02*
X53750000Y-43450000D01*
X49440000Y-44210000D02*
X57060000Y-44210000D01*
X49440000Y-38240000D02*
X49440000Y-44210000D01*
X57060000Y-38240000D02*
X49440000Y-38240000D01*
X57060000Y-44210000D02*
X57060000Y-38240000D01*
%TO.C,J25*%
X35350000Y-74500000D02*
X35350000Y-73250000D01*
X34100000Y-74500000D02*
X35350000Y-74500000D01*
X28200000Y-69000000D02*
X31250000Y-69000000D01*
X28200000Y-71950000D02*
X28200000Y-69000000D01*
X27450000Y-71950000D02*
X28200000Y-71950000D01*
X34300000Y-69000000D02*
X31250000Y-69000000D01*
X34300000Y-71950000D02*
X34300000Y-69000000D01*
X35050000Y-71950000D02*
X34300000Y-71950000D01*
X27450000Y-74200000D02*
X29250000Y-74200000D01*
X27450000Y-73450000D02*
X27450000Y-74200000D01*
X29250000Y-73450000D02*
X27450000Y-73450000D01*
X29250000Y-74200000D02*
X29250000Y-73450000D01*
X33250000Y-74200000D02*
X35050000Y-74200000D01*
X33250000Y-73450000D02*
X33250000Y-74200000D01*
X35050000Y-73450000D02*
X33250000Y-73450000D01*
X35050000Y-74200000D02*
X35050000Y-73450000D01*
X30750000Y-74200000D02*
X31750000Y-74200000D01*
X30750000Y-73450000D02*
X30750000Y-74200000D01*
X31750000Y-73450000D02*
X30750000Y-73450000D01*
X31750000Y-74200000D02*
X31750000Y-73450000D01*
X27440000Y-74210000D02*
X35060000Y-74210000D01*
X27440000Y-68240000D02*
X27440000Y-74210000D01*
X35060000Y-68240000D02*
X27440000Y-68240000D01*
X35060000Y-74210000D02*
X35060000Y-68240000D01*
%TO.C,J24*%
X57350000Y-52750000D02*
X57350000Y-51500000D01*
X56100000Y-52750000D02*
X57350000Y-52750000D01*
X50200000Y-47250000D02*
X53250000Y-47250000D01*
X50200000Y-50200000D02*
X50200000Y-47250000D01*
X49450000Y-50200000D02*
X50200000Y-50200000D01*
X56300000Y-47250000D02*
X53250000Y-47250000D01*
X56300000Y-50200000D02*
X56300000Y-47250000D01*
X57050000Y-50200000D02*
X56300000Y-50200000D01*
X49450000Y-52450000D02*
X51250000Y-52450000D01*
X49450000Y-51700000D02*
X49450000Y-52450000D01*
X51250000Y-51700000D02*
X49450000Y-51700000D01*
X51250000Y-52450000D02*
X51250000Y-51700000D01*
X55250000Y-52450000D02*
X57050000Y-52450000D01*
X55250000Y-51700000D02*
X55250000Y-52450000D01*
X57050000Y-51700000D02*
X55250000Y-51700000D01*
X57050000Y-52450000D02*
X57050000Y-51700000D01*
X52750000Y-52450000D02*
X53750000Y-52450000D01*
X52750000Y-51700000D02*
X52750000Y-52450000D01*
X53750000Y-51700000D02*
X52750000Y-51700000D01*
X53750000Y-52450000D02*
X53750000Y-51700000D01*
X49440000Y-52460000D02*
X57060000Y-52460000D01*
X49440000Y-46490000D02*
X49440000Y-52460000D01*
X57060000Y-46490000D02*
X49440000Y-46490000D01*
X57060000Y-52460000D02*
X57060000Y-46490000D01*
%TO.C,J23*%
X44350000Y-74500000D02*
X44350000Y-73250000D01*
X43100000Y-74500000D02*
X44350000Y-74500000D01*
X37200000Y-69000000D02*
X40250000Y-69000000D01*
X37200000Y-71950000D02*
X37200000Y-69000000D01*
X36450000Y-71950000D02*
X37200000Y-71950000D01*
X43300000Y-69000000D02*
X40250000Y-69000000D01*
X43300000Y-71950000D02*
X43300000Y-69000000D01*
X44050000Y-71950000D02*
X43300000Y-71950000D01*
X36450000Y-74200000D02*
X38250000Y-74200000D01*
X36450000Y-73450000D02*
X36450000Y-74200000D01*
X38250000Y-73450000D02*
X36450000Y-73450000D01*
X38250000Y-74200000D02*
X38250000Y-73450000D01*
X42250000Y-74200000D02*
X44050000Y-74200000D01*
X42250000Y-73450000D02*
X42250000Y-74200000D01*
X44050000Y-73450000D02*
X42250000Y-73450000D01*
X44050000Y-74200000D02*
X44050000Y-73450000D01*
X39750000Y-74200000D02*
X40750000Y-74200000D01*
X39750000Y-73450000D02*
X39750000Y-74200000D01*
X40750000Y-73450000D02*
X39750000Y-73450000D01*
X40750000Y-74200000D02*
X40750000Y-73450000D01*
X36440000Y-74210000D02*
X44060000Y-74210000D01*
X36440000Y-68240000D02*
X36440000Y-74210000D01*
X44060000Y-68240000D02*
X36440000Y-68240000D01*
X44060000Y-74210000D02*
X44060000Y-68240000D01*
%TO.C,J22*%
X23920000Y-31065000D02*
X29680000Y-31065000D01*
X23920000Y-32485000D02*
X23920000Y-31065000D01*
X24420000Y-32485000D02*
X23920000Y-32485000D01*
X24420000Y-51515000D02*
X24420000Y-32485000D01*
X23920000Y-51515000D02*
X24420000Y-51515000D01*
X23920000Y-52935000D02*
X23920000Y-51515000D01*
X29680000Y-52935000D02*
X23920000Y-52935000D01*
X31510000Y-31065000D02*
X31200000Y-31065000D01*
X31510000Y-52935000D02*
X31510000Y-31065000D01*
X31200000Y-52935000D02*
X31510000Y-52935000D01*
%TO.C,J21*%
X53350000Y-74500000D02*
X53350000Y-73250000D01*
X52100000Y-74500000D02*
X53350000Y-74500000D01*
X46200000Y-69000000D02*
X49250000Y-69000000D01*
X46200000Y-71950000D02*
X46200000Y-69000000D01*
X45450000Y-71950000D02*
X46200000Y-71950000D01*
X52300000Y-69000000D02*
X49250000Y-69000000D01*
X52300000Y-71950000D02*
X52300000Y-69000000D01*
X53050000Y-71950000D02*
X52300000Y-71950000D01*
X45450000Y-74200000D02*
X47250000Y-74200000D01*
X45450000Y-73450000D02*
X45450000Y-74200000D01*
X47250000Y-73450000D02*
X45450000Y-73450000D01*
X47250000Y-74200000D02*
X47250000Y-73450000D01*
X51250000Y-74200000D02*
X53050000Y-74200000D01*
X51250000Y-73450000D02*
X51250000Y-74200000D01*
X53050000Y-73450000D02*
X51250000Y-73450000D01*
X53050000Y-74200000D02*
X53050000Y-73450000D01*
X48750000Y-74200000D02*
X49750000Y-74200000D01*
X48750000Y-73450000D02*
X48750000Y-74200000D01*
X49750000Y-73450000D02*
X48750000Y-73450000D01*
X49750000Y-74200000D02*
X49750000Y-73450000D01*
X45440000Y-74210000D02*
X53060000Y-74210000D01*
X45440000Y-68240000D02*
X45440000Y-74210000D01*
X53060000Y-68240000D02*
X45440000Y-68240000D01*
X53060000Y-74210000D02*
X53060000Y-68240000D01*
%TO.C,J20*%
X21065000Y-65830000D02*
X21065000Y-60070000D01*
X22485000Y-65830000D02*
X21065000Y-65830000D01*
X22485000Y-65330000D02*
X22485000Y-65830000D01*
X59515000Y-65330000D02*
X22485000Y-65330000D01*
X59515000Y-65830000D02*
X59515000Y-65330000D01*
X60935000Y-65830000D02*
X59515000Y-65830000D01*
X60935000Y-60070000D02*
X60935000Y-65830000D01*
X21065000Y-58240000D02*
X21065000Y-58550000D01*
X60935000Y-58240000D02*
X21065000Y-58240000D01*
X60935000Y-58550000D02*
X60935000Y-58240000D01*
%TO.C,J19*%
X82830000Y-52250000D02*
X82830000Y-53580000D01*
X82830000Y-53580000D02*
X81500000Y-53580000D01*
X80230000Y-53580000D02*
X64930000Y-53580000D01*
X64930000Y-50920000D02*
X64930000Y-53580000D01*
X80230000Y-50920000D02*
X64930000Y-50920000D01*
X80230000Y-50920000D02*
X80230000Y-53580000D01*
%TO.C,J18*%
X67350000Y-74500000D02*
X67350000Y-73250000D01*
X66100000Y-74500000D02*
X67350000Y-74500000D01*
X55200000Y-69000000D02*
X60750000Y-69000000D01*
X55200000Y-71950000D02*
X55200000Y-69000000D01*
X54450000Y-71950000D02*
X55200000Y-71950000D01*
X66300000Y-69000000D02*
X60750000Y-69000000D01*
X66300000Y-71950000D02*
X66300000Y-69000000D01*
X67050000Y-71950000D02*
X66300000Y-71950000D01*
X54450000Y-74200000D02*
X56250000Y-74200000D01*
X54450000Y-73450000D02*
X54450000Y-74200000D01*
X56250000Y-73450000D02*
X54450000Y-73450000D01*
X56250000Y-74200000D02*
X56250000Y-73450000D01*
X65250000Y-74200000D02*
X67050000Y-74200000D01*
X65250000Y-73450000D02*
X65250000Y-74200000D01*
X67050000Y-73450000D02*
X65250000Y-73450000D01*
X67050000Y-74200000D02*
X67050000Y-73450000D01*
X57750000Y-74200000D02*
X63750000Y-74200000D01*
X57750000Y-73450000D02*
X57750000Y-74200000D01*
X63750000Y-73450000D02*
X57750000Y-73450000D01*
X63750000Y-74200000D02*
X63750000Y-73450000D01*
X54440000Y-74210000D02*
X67060000Y-74210000D01*
X54440000Y-68240000D02*
X54440000Y-74210000D01*
X67060000Y-68240000D02*
X54440000Y-68240000D01*
X67060000Y-74210000D02*
X67060000Y-68240000D01*
%TO.C,J17*%
X27150000Y-21500000D02*
X27150000Y-22750000D01*
X28400000Y-21500000D02*
X27150000Y-21500000D01*
X39300000Y-27000000D02*
X33750000Y-27000000D01*
X39300000Y-24050000D02*
X39300000Y-27000000D01*
X40050000Y-24050000D02*
X39300000Y-24050000D01*
X28200000Y-27000000D02*
X33750000Y-27000000D01*
X28200000Y-24050000D02*
X28200000Y-27000000D01*
X27450000Y-24050000D02*
X28200000Y-24050000D01*
X40050000Y-21800000D02*
X38250000Y-21800000D01*
X40050000Y-22550000D02*
X40050000Y-21800000D01*
X38250000Y-22550000D02*
X40050000Y-22550000D01*
X38250000Y-21800000D02*
X38250000Y-22550000D01*
X29250000Y-21800000D02*
X27450000Y-21800000D01*
X29250000Y-22550000D02*
X29250000Y-21800000D01*
X27450000Y-22550000D02*
X29250000Y-22550000D01*
X27450000Y-21800000D02*
X27450000Y-22550000D01*
X36750000Y-21800000D02*
X30750000Y-21800000D01*
X36750000Y-22550000D02*
X36750000Y-21800000D01*
X30750000Y-22550000D02*
X36750000Y-22550000D01*
X30750000Y-21800000D02*
X30750000Y-22550000D01*
X40060000Y-21790000D02*
X27440000Y-21790000D01*
X40060000Y-27760000D02*
X40060000Y-21790000D01*
X27440000Y-27760000D02*
X40060000Y-27760000D01*
X27440000Y-21790000D02*
X27440000Y-27760000D01*
%TO.C,J16*%
X83500000Y-56900000D02*
X82250000Y-56900000D01*
X83500000Y-58150000D02*
X83500000Y-56900000D01*
X78000000Y-66550000D02*
X78000000Y-62250000D01*
X80950000Y-66550000D02*
X78000000Y-66550000D01*
X80950000Y-67300000D02*
X80950000Y-66550000D01*
X78000000Y-57950000D02*
X78000000Y-62250000D01*
X80950000Y-57950000D02*
X78000000Y-57950000D01*
X80950000Y-57200000D02*
X80950000Y-57950000D01*
X83200000Y-67300000D02*
X83200000Y-65500000D01*
X82450000Y-67300000D02*
X83200000Y-67300000D01*
X82450000Y-65500000D02*
X82450000Y-67300000D01*
X83200000Y-65500000D02*
X82450000Y-65500000D01*
X83200000Y-59000000D02*
X83200000Y-57200000D01*
X82450000Y-59000000D02*
X83200000Y-59000000D01*
X82450000Y-57200000D02*
X82450000Y-59000000D01*
X83200000Y-57200000D02*
X82450000Y-57200000D01*
X83200000Y-64000000D02*
X83200000Y-60500000D01*
X82450000Y-64000000D02*
X83200000Y-64000000D01*
X82450000Y-60500000D02*
X82450000Y-64000000D01*
X83200000Y-60500000D02*
X82450000Y-60500000D01*
X83210000Y-67310000D02*
X83210000Y-57190000D01*
X77240000Y-67310000D02*
X83210000Y-67310000D01*
X77240000Y-57190000D02*
X77240000Y-67310000D01*
X83210000Y-57190000D02*
X77240000Y-57190000D01*
%TO.C,J15*%
X131170000Y-40420000D02*
X132500000Y-40420000D01*
X131170000Y-41750000D02*
X131170000Y-40420000D01*
X131170000Y-43020000D02*
X133830000Y-43020000D01*
X133830000Y-43020000D02*
X133830000Y-48160000D01*
X131170000Y-43020000D02*
X131170000Y-48160000D01*
X131170000Y-48160000D02*
X133830000Y-48160000D01*
%TO.C,J14*%
X121600000Y-48500000D02*
X121600000Y-47250000D01*
X120350000Y-48500000D02*
X121600000Y-48500000D01*
X114450000Y-43000000D02*
X117500000Y-43000000D01*
X114450000Y-45950000D02*
X114450000Y-43000000D01*
X113700000Y-45950000D02*
X114450000Y-45950000D01*
X120550000Y-43000000D02*
X117500000Y-43000000D01*
X120550000Y-45950000D02*
X120550000Y-43000000D01*
X121300000Y-45950000D02*
X120550000Y-45950000D01*
X113700000Y-48200000D02*
X115500000Y-48200000D01*
X113700000Y-47450000D02*
X113700000Y-48200000D01*
X115500000Y-47450000D02*
X113700000Y-47450000D01*
X115500000Y-48200000D02*
X115500000Y-47450000D01*
X119500000Y-48200000D02*
X121300000Y-48200000D01*
X119500000Y-47450000D02*
X119500000Y-48200000D01*
X121300000Y-47450000D02*
X119500000Y-47450000D01*
X121300000Y-48200000D02*
X121300000Y-47450000D01*
X117000000Y-48200000D02*
X118000000Y-48200000D01*
X117000000Y-47450000D02*
X117000000Y-48200000D01*
X118000000Y-47450000D02*
X117000000Y-47450000D01*
X118000000Y-48200000D02*
X118000000Y-47450000D01*
X113690000Y-48210000D02*
X121310000Y-48210000D01*
X113690000Y-42240000D02*
X113690000Y-48210000D01*
X121310000Y-42240000D02*
X113690000Y-42240000D01*
X121310000Y-48210000D02*
X121310000Y-42240000D01*
%TO.C,J13*%
X121600000Y-23750000D02*
X121600000Y-22500000D01*
X120350000Y-23750000D02*
X121600000Y-23750000D01*
X114450000Y-18250000D02*
X117500000Y-18250000D01*
X114450000Y-21200000D02*
X114450000Y-18250000D01*
X113700000Y-21200000D02*
X114450000Y-21200000D01*
X120550000Y-18250000D02*
X117500000Y-18250000D01*
X120550000Y-21200000D02*
X120550000Y-18250000D01*
X121300000Y-21200000D02*
X120550000Y-21200000D01*
X113700000Y-23450000D02*
X115500000Y-23450000D01*
X113700000Y-22700000D02*
X113700000Y-23450000D01*
X115500000Y-22700000D02*
X113700000Y-22700000D01*
X115500000Y-23450000D02*
X115500000Y-22700000D01*
X119500000Y-23450000D02*
X121300000Y-23450000D01*
X119500000Y-22700000D02*
X119500000Y-23450000D01*
X121300000Y-22700000D02*
X119500000Y-22700000D01*
X121300000Y-23450000D02*
X121300000Y-22700000D01*
X117000000Y-23450000D02*
X118000000Y-23450000D01*
X117000000Y-22700000D02*
X117000000Y-23450000D01*
X118000000Y-22700000D02*
X117000000Y-22700000D01*
X118000000Y-23450000D02*
X118000000Y-22700000D01*
X113690000Y-23460000D02*
X121310000Y-23460000D01*
X113690000Y-17490000D02*
X113690000Y-23460000D01*
X121310000Y-17490000D02*
X113690000Y-17490000D01*
X121310000Y-23460000D02*
X121310000Y-17490000D01*
%TO.C,J12*%
X108750000Y-61650000D02*
X107500000Y-61650000D01*
X108750000Y-62900000D02*
X108750000Y-61650000D01*
X103250000Y-73800000D02*
X103250000Y-68250000D01*
X106200000Y-73800000D02*
X103250000Y-73800000D01*
X106200000Y-74550000D02*
X106200000Y-73800000D01*
X103250000Y-62700000D02*
X103250000Y-68250000D01*
X106200000Y-62700000D02*
X103250000Y-62700000D01*
X106200000Y-61950000D02*
X106200000Y-62700000D01*
X108450000Y-74550000D02*
X108450000Y-72750000D01*
X107700000Y-74550000D02*
X108450000Y-74550000D01*
X107700000Y-72750000D02*
X107700000Y-74550000D01*
X108450000Y-72750000D02*
X107700000Y-72750000D01*
X108450000Y-63750000D02*
X108450000Y-61950000D01*
X107700000Y-63750000D02*
X108450000Y-63750000D01*
X107700000Y-61950000D02*
X107700000Y-63750000D01*
X108450000Y-61950000D02*
X107700000Y-61950000D01*
X108450000Y-71250000D02*
X108450000Y-65250000D01*
X107700000Y-71250000D02*
X108450000Y-71250000D01*
X107700000Y-65250000D02*
X107700000Y-71250000D01*
X108450000Y-65250000D02*
X107700000Y-65250000D01*
X108460000Y-74560000D02*
X108460000Y-61940000D01*
X102490000Y-74560000D02*
X108460000Y-74560000D01*
X102490000Y-61940000D02*
X102490000Y-74560000D01*
X108460000Y-61940000D02*
X102490000Y-61940000D01*
%TO.C,J11*%
X88250000Y-74850000D02*
X89500000Y-74850000D01*
X88250000Y-73600000D02*
X88250000Y-74850000D01*
X93750000Y-62700000D02*
X93750000Y-68250000D01*
X90800000Y-62700000D02*
X93750000Y-62700000D01*
X90800000Y-61950000D02*
X90800000Y-62700000D01*
X93750000Y-73800000D02*
X93750000Y-68250000D01*
X90800000Y-73800000D02*
X93750000Y-73800000D01*
X90800000Y-74550000D02*
X90800000Y-73800000D01*
X88550000Y-61950000D02*
X88550000Y-63750000D01*
X89300000Y-61950000D02*
X88550000Y-61950000D01*
X89300000Y-63750000D02*
X89300000Y-61950000D01*
X88550000Y-63750000D02*
X89300000Y-63750000D01*
X88550000Y-72750000D02*
X88550000Y-74550000D01*
X89300000Y-72750000D02*
X88550000Y-72750000D01*
X89300000Y-74550000D02*
X89300000Y-72750000D01*
X88550000Y-74550000D02*
X89300000Y-74550000D01*
X88550000Y-65250000D02*
X88550000Y-71250000D01*
X89300000Y-65250000D02*
X88550000Y-65250000D01*
X89300000Y-71250000D02*
X89300000Y-65250000D01*
X88550000Y-71250000D02*
X89300000Y-71250000D01*
X88540000Y-61940000D02*
X88540000Y-74560000D01*
X94510000Y-61940000D02*
X88540000Y-61940000D01*
X94510000Y-74560000D02*
X94510000Y-61940000D01*
X88540000Y-74560000D02*
X94510000Y-74560000D01*
%TO.C,J10*%
X130350000Y-48500000D02*
X130350000Y-47250000D01*
X129100000Y-48500000D02*
X130350000Y-48500000D01*
X123200000Y-43000000D02*
X126250000Y-43000000D01*
X123200000Y-45950000D02*
X123200000Y-43000000D01*
X122450000Y-45950000D02*
X123200000Y-45950000D01*
X129300000Y-43000000D02*
X126250000Y-43000000D01*
X129300000Y-45950000D02*
X129300000Y-43000000D01*
X130050000Y-45950000D02*
X129300000Y-45950000D01*
X122450000Y-48200000D02*
X124250000Y-48200000D01*
X122450000Y-47450000D02*
X122450000Y-48200000D01*
X124250000Y-47450000D02*
X122450000Y-47450000D01*
X124250000Y-48200000D02*
X124250000Y-47450000D01*
X128250000Y-48200000D02*
X130050000Y-48200000D01*
X128250000Y-47450000D02*
X128250000Y-48200000D01*
X130050000Y-47450000D02*
X128250000Y-47450000D01*
X130050000Y-48200000D02*
X130050000Y-47450000D01*
X125750000Y-48200000D02*
X126750000Y-48200000D01*
X125750000Y-47450000D02*
X125750000Y-48200000D01*
X126750000Y-47450000D02*
X125750000Y-47450000D01*
X126750000Y-48200000D02*
X126750000Y-47450000D01*
X122440000Y-48210000D02*
X130060000Y-48210000D01*
X122440000Y-42240000D02*
X122440000Y-48210000D01*
X130060000Y-42240000D02*
X122440000Y-42240000D01*
X130060000Y-48210000D02*
X130060000Y-42240000D01*
%TO.C,J9*%
X130350000Y-23750000D02*
X130350000Y-22500000D01*
X129100000Y-23750000D02*
X130350000Y-23750000D01*
X123200000Y-18250000D02*
X126250000Y-18250000D01*
X123200000Y-21200000D02*
X123200000Y-18250000D01*
X122450000Y-21200000D02*
X123200000Y-21200000D01*
X129300000Y-18250000D02*
X126250000Y-18250000D01*
X129300000Y-21200000D02*
X129300000Y-18250000D01*
X130050000Y-21200000D02*
X129300000Y-21200000D01*
X122450000Y-23450000D02*
X124250000Y-23450000D01*
X122450000Y-22700000D02*
X122450000Y-23450000D01*
X124250000Y-22700000D02*
X122450000Y-22700000D01*
X124250000Y-23450000D02*
X124250000Y-22700000D01*
X128250000Y-23450000D02*
X130050000Y-23450000D01*
X128250000Y-22700000D02*
X128250000Y-23450000D01*
X130050000Y-22700000D02*
X128250000Y-22700000D01*
X130050000Y-23450000D02*
X130050000Y-22700000D01*
X125750000Y-23450000D02*
X126750000Y-23450000D01*
X125750000Y-22700000D02*
X125750000Y-23450000D01*
X126750000Y-22700000D02*
X125750000Y-22700000D01*
X126750000Y-23450000D02*
X126750000Y-22700000D01*
X122440000Y-23460000D02*
X130060000Y-23460000D01*
X122440000Y-17490000D02*
X122440000Y-23460000D01*
X130060000Y-17490000D02*
X122440000Y-17490000D01*
X130060000Y-23460000D02*
X130060000Y-17490000D01*
%TO.C,J8*%
X139100000Y-23750000D02*
X139100000Y-22500000D01*
X137850000Y-23750000D02*
X139100000Y-23750000D01*
X131950000Y-18250000D02*
X135000000Y-18250000D01*
X131950000Y-21200000D02*
X131950000Y-18250000D01*
X131200000Y-21200000D02*
X131950000Y-21200000D01*
X138050000Y-18250000D02*
X135000000Y-18250000D01*
X138050000Y-21200000D02*
X138050000Y-18250000D01*
X138800000Y-21200000D02*
X138050000Y-21200000D01*
X131200000Y-23450000D02*
X133000000Y-23450000D01*
X131200000Y-22700000D02*
X131200000Y-23450000D01*
X133000000Y-22700000D02*
X131200000Y-22700000D01*
X133000000Y-23450000D02*
X133000000Y-22700000D01*
X137000000Y-23450000D02*
X138800000Y-23450000D01*
X137000000Y-22700000D02*
X137000000Y-23450000D01*
X138800000Y-22700000D02*
X137000000Y-22700000D01*
X138800000Y-23450000D02*
X138800000Y-22700000D01*
X134500000Y-23450000D02*
X135500000Y-23450000D01*
X134500000Y-22700000D02*
X134500000Y-23450000D01*
X135500000Y-22700000D02*
X134500000Y-22700000D01*
X135500000Y-23450000D02*
X135500000Y-22700000D01*
X131190000Y-23460000D02*
X138810000Y-23460000D01*
X131190000Y-17490000D02*
X131190000Y-23460000D01*
X138810000Y-17490000D02*
X131190000Y-17490000D01*
X138810000Y-23460000D02*
X138810000Y-17490000D01*
%TO.C,J7*%
X113565000Y-37330000D02*
X113565000Y-31570000D01*
X114985000Y-37330000D02*
X113565000Y-37330000D01*
X114985000Y-36830000D02*
X114985000Y-37330000D01*
X152015000Y-36830000D02*
X114985000Y-36830000D01*
X152015000Y-37330000D02*
X152015000Y-36830000D01*
X153435000Y-37330000D02*
X152015000Y-37330000D01*
X153435000Y-31570000D02*
X153435000Y-37330000D01*
X113565000Y-29740000D02*
X113565000Y-30050000D01*
X153435000Y-29740000D02*
X113565000Y-29740000D01*
X153435000Y-30050000D02*
X153435000Y-29740000D01*
%TO.C,J6*%
X152600000Y-48500000D02*
X152600000Y-47250000D01*
X151350000Y-48500000D02*
X152600000Y-48500000D01*
X135450000Y-43000000D02*
X143500000Y-43000000D01*
X135450000Y-45950000D02*
X135450000Y-43000000D01*
X134700000Y-45950000D02*
X135450000Y-45950000D01*
X151550000Y-43000000D02*
X143500000Y-43000000D01*
X151550000Y-45950000D02*
X151550000Y-43000000D01*
X152300000Y-45950000D02*
X151550000Y-45950000D01*
X134700000Y-48200000D02*
X136500000Y-48200000D01*
X134700000Y-47450000D02*
X134700000Y-48200000D01*
X136500000Y-47450000D02*
X134700000Y-47450000D01*
X136500000Y-48200000D02*
X136500000Y-47450000D01*
X150500000Y-48200000D02*
X152300000Y-48200000D01*
X150500000Y-47450000D02*
X150500000Y-48200000D01*
X152300000Y-47450000D02*
X150500000Y-47450000D01*
X152300000Y-48200000D02*
X152300000Y-47450000D01*
X138000000Y-48200000D02*
X149000000Y-48200000D01*
X138000000Y-47450000D02*
X138000000Y-48200000D01*
X149000000Y-47450000D02*
X138000000Y-47450000D01*
X149000000Y-48200000D02*
X149000000Y-47450000D01*
X134690000Y-48210000D02*
X152310000Y-48210000D01*
X134690000Y-42240000D02*
X134690000Y-48210000D01*
X152310000Y-42240000D02*
X134690000Y-42240000D01*
X152310000Y-48210000D02*
X152310000Y-42240000D01*
%TO.C,J5*%
X87565000Y-61080000D02*
X87565000Y-55320000D01*
X88985000Y-61080000D02*
X87565000Y-61080000D01*
X88985000Y-60580000D02*
X88985000Y-61080000D01*
X108015000Y-60580000D02*
X88985000Y-60580000D01*
X108015000Y-61080000D02*
X108015000Y-60580000D01*
X109435000Y-61080000D02*
X108015000Y-61080000D01*
X109435000Y-55320000D02*
X109435000Y-61080000D01*
X87565000Y-53490000D02*
X87565000Y-53800000D01*
X109435000Y-53490000D02*
X87565000Y-53490000D01*
X109435000Y-53800000D02*
X109435000Y-53490000D01*
%TO.C,J4*%
X152850000Y-23750000D02*
X152850000Y-22500000D01*
X151600000Y-23750000D02*
X152850000Y-23750000D01*
X140700000Y-18250000D02*
X146250000Y-18250000D01*
X140700000Y-21200000D02*
X140700000Y-18250000D01*
X139950000Y-21200000D02*
X140700000Y-21200000D01*
X151800000Y-18250000D02*
X146250000Y-18250000D01*
X151800000Y-21200000D02*
X151800000Y-18250000D01*
X152550000Y-21200000D02*
X151800000Y-21200000D01*
X139950000Y-23450000D02*
X141750000Y-23450000D01*
X139950000Y-22700000D02*
X139950000Y-23450000D01*
X141750000Y-22700000D02*
X139950000Y-22700000D01*
X141750000Y-23450000D02*
X141750000Y-22700000D01*
X150750000Y-23450000D02*
X152550000Y-23450000D01*
X150750000Y-22700000D02*
X150750000Y-23450000D01*
X152550000Y-22700000D02*
X150750000Y-22700000D01*
X152550000Y-23450000D02*
X152550000Y-22700000D01*
X143250000Y-23450000D02*
X149250000Y-23450000D01*
X143250000Y-22700000D02*
X143250000Y-23450000D01*
X149250000Y-22700000D02*
X143250000Y-22700000D01*
X149250000Y-23450000D02*
X149250000Y-22700000D01*
X139940000Y-23460000D02*
X152560000Y-23460000D01*
X139940000Y-17490000D02*
X139940000Y-23460000D01*
X152560000Y-17490000D02*
X139940000Y-17490000D01*
X152560000Y-23460000D02*
X152560000Y-17490000D01*
%TO.C,J3*%
X154750000Y-27850000D02*
X156000000Y-27850000D01*
X154750000Y-26600000D02*
X154750000Y-27850000D01*
X160250000Y-18200000D02*
X160250000Y-22500000D01*
X157300000Y-18200000D02*
X160250000Y-18200000D01*
X157300000Y-17450000D02*
X157300000Y-18200000D01*
X160250000Y-26800000D02*
X160250000Y-22500000D01*
X157300000Y-26800000D02*
X160250000Y-26800000D01*
X157300000Y-27550000D02*
X157300000Y-26800000D01*
X155050000Y-17450000D02*
X155050000Y-19250000D01*
X155800000Y-17450000D02*
X155050000Y-17450000D01*
X155800000Y-19250000D02*
X155800000Y-17450000D01*
X155050000Y-19250000D02*
X155800000Y-19250000D01*
X155050000Y-25750000D02*
X155050000Y-27550000D01*
X155800000Y-25750000D02*
X155050000Y-25750000D01*
X155800000Y-27550000D02*
X155800000Y-25750000D01*
X155050000Y-27550000D02*
X155800000Y-27550000D01*
X155050000Y-20750000D02*
X155050000Y-24250000D01*
X155800000Y-20750000D02*
X155050000Y-20750000D01*
X155800000Y-24250000D02*
X155800000Y-20750000D01*
X155050000Y-24250000D02*
X155800000Y-24250000D01*
X155040000Y-17440000D02*
X155040000Y-27560000D01*
X161010000Y-17440000D02*
X155040000Y-17440000D01*
X161010000Y-27560000D02*
X161010000Y-17440000D01*
X155040000Y-27560000D02*
X161010000Y-27560000D01*
%TO.C,J2*%
X151830000Y-38420000D02*
X151830000Y-39750000D01*
X150500000Y-38420000D02*
X151830000Y-38420000D01*
X149230000Y-38420000D02*
X149230000Y-41080000D01*
X149230000Y-41080000D02*
X141550000Y-41080000D01*
X149230000Y-38420000D02*
X141550000Y-38420000D01*
X141550000Y-38420000D02*
X141550000Y-41080000D01*
%TO.C,J1*%
X105100000Y-51500000D02*
X105100000Y-50250000D01*
X103850000Y-51500000D02*
X105100000Y-51500000D01*
X92950000Y-46000000D02*
X98500000Y-46000000D01*
X92950000Y-48950000D02*
X92950000Y-46000000D01*
X92200000Y-48950000D02*
X92950000Y-48950000D01*
X104050000Y-46000000D02*
X98500000Y-46000000D01*
X104050000Y-48950000D02*
X104050000Y-46000000D01*
X104800000Y-48950000D02*
X104050000Y-48950000D01*
X92200000Y-51200000D02*
X94000000Y-51200000D01*
X92200000Y-50450000D02*
X92200000Y-51200000D01*
X94000000Y-50450000D02*
X92200000Y-50450000D01*
X94000000Y-51200000D02*
X94000000Y-50450000D01*
X103000000Y-51200000D02*
X104800000Y-51200000D01*
X103000000Y-50450000D02*
X103000000Y-51200000D01*
X104800000Y-50450000D02*
X103000000Y-50450000D01*
X104800000Y-51200000D02*
X104800000Y-50450000D01*
X95500000Y-51200000D02*
X101500000Y-51200000D01*
X95500000Y-50450000D02*
X95500000Y-51200000D01*
X101500000Y-50450000D02*
X95500000Y-50450000D01*
X101500000Y-51200000D02*
X101500000Y-50450000D01*
X92190000Y-51210000D02*
X104810000Y-51210000D01*
X92190000Y-45240000D02*
X92190000Y-51210000D01*
X104810000Y-45240000D02*
X92190000Y-45240000D01*
X104810000Y-51210000D02*
X104810000Y-45240000D01*
%TO.C,D1*%
X67290000Y-62380000D02*
X67290000Y-64620000D01*
X67530000Y-62380000D02*
X67530000Y-64620000D01*
X67410000Y-62380000D02*
X67410000Y-64620000D01*
X71580000Y-63500000D02*
X70930000Y-63500000D01*
X66040000Y-63500000D02*
X66690000Y-63500000D01*
X70930000Y-62380000D02*
X66690000Y-62380000D01*
X70930000Y-64620000D02*
X70930000Y-62380000D01*
X66690000Y-64620000D02*
X70930000Y-64620000D01*
X66690000Y-62380000D02*
X66690000Y-64620000D01*
%TO.C,J28*%
D11*
X39140476Y-47202380D02*
X39140476Y-47916666D01*
X39092857Y-48059523D01*
X38997619Y-48154761D01*
X38854761Y-48202380D01*
X38759523Y-48202380D01*
X39569047Y-47297619D02*
X39616666Y-47250000D01*
X39711904Y-47202380D01*
X39950000Y-47202380D01*
X40045238Y-47250000D01*
X40092857Y-47297619D01*
X40140476Y-47392857D01*
X40140476Y-47488095D01*
X40092857Y-47630952D01*
X39521428Y-48202380D01*
X40140476Y-48202380D01*
X40711904Y-47630952D02*
X40616666Y-47583333D01*
X40569047Y-47535714D01*
X40521428Y-47440476D01*
X40521428Y-47392857D01*
X40569047Y-47297619D01*
X40616666Y-47250000D01*
X40711904Y-47202380D01*
X40902380Y-47202380D01*
X40997619Y-47250000D01*
X41045238Y-47297619D01*
X41092857Y-47392857D01*
X41092857Y-47440476D01*
X41045238Y-47535714D01*
X40997619Y-47583333D01*
X40902380Y-47630952D01*
X40711904Y-47630952D01*
X40616666Y-47678571D01*
X40569047Y-47726190D01*
X40521428Y-47821428D01*
X40521428Y-48011904D01*
X40569047Y-48107142D01*
X40616666Y-48154761D01*
X40711904Y-48202380D01*
X40902380Y-48202380D01*
X40997619Y-48154761D01*
X41045238Y-48107142D01*
X41092857Y-48011904D01*
X41092857Y-47821428D01*
X41045238Y-47726190D01*
X40997619Y-47678571D01*
X40902380Y-47630952D01*
X48552380Y-50083333D02*
X48028571Y-50083333D01*
X47933333Y-50130952D01*
X47885714Y-50226190D01*
X47885714Y-50416666D01*
X47933333Y-50511904D01*
X48504761Y-50083333D02*
X48552380Y-50178571D01*
X48552380Y-50416666D01*
X48504761Y-50511904D01*
X48409523Y-50559523D01*
X48314285Y-50559523D01*
X48219047Y-50511904D01*
X48171428Y-50416666D01*
X48171428Y-50178571D01*
X48123809Y-50083333D01*
X48647619Y-49845238D02*
X48647619Y-49083333D01*
X48552380Y-48845238D02*
X47885714Y-48845238D01*
X47980952Y-48845238D02*
X47933333Y-48797619D01*
X47885714Y-48702380D01*
X47885714Y-48559523D01*
X47933333Y-48464285D01*
X48028571Y-48416666D01*
X48552380Y-48416666D01*
X48028571Y-48416666D02*
X47933333Y-48369047D01*
X47885714Y-48273809D01*
X47885714Y-48130952D01*
X47933333Y-48035714D01*
X48028571Y-47988095D01*
X48552380Y-47988095D01*
X48552380Y-47369047D02*
X48504761Y-47464285D01*
X48457142Y-47511904D01*
X48361904Y-47559523D01*
X48076190Y-47559523D01*
X47980952Y-47511904D01*
X47933333Y-47464285D01*
X47885714Y-47369047D01*
X47885714Y-47226190D01*
X47933333Y-47130952D01*
X47980952Y-47083333D01*
X48076190Y-47035714D01*
X48361904Y-47035714D01*
X48457142Y-47083333D01*
X48504761Y-47130952D01*
X48552380Y-47226190D01*
X48552380Y-47369047D01*
X47885714Y-46750000D02*
X47885714Y-46369047D01*
X47552380Y-46607142D02*
X48409523Y-46607142D01*
X48504761Y-46559523D01*
X48552380Y-46464285D01*
X48552380Y-46369047D01*
X48552380Y-45892857D02*
X48504761Y-45988095D01*
X48457142Y-46035714D01*
X48361904Y-46083333D01*
X48076190Y-46083333D01*
X47980952Y-46035714D01*
X47933333Y-45988095D01*
X47885714Y-45892857D01*
X47885714Y-45750000D01*
X47933333Y-45654761D01*
X47980952Y-45607142D01*
X48076190Y-45559523D01*
X48361904Y-45559523D01*
X48457142Y-45607142D01*
X48504761Y-45654761D01*
X48552380Y-45750000D01*
X48552380Y-45892857D01*
X48552380Y-45130952D02*
X47885714Y-45130952D01*
X48076190Y-45130952D02*
X47980952Y-45083333D01*
X47933333Y-45035714D01*
X47885714Y-44940476D01*
X47885714Y-44845238D01*
%TO.C,J27*%
X39140476Y-33452380D02*
X39140476Y-34166666D01*
X39092857Y-34309523D01*
X38997619Y-34404761D01*
X38854761Y-34452380D01*
X38759523Y-34452380D01*
X39569047Y-33547619D02*
X39616666Y-33500000D01*
X39711904Y-33452380D01*
X39950000Y-33452380D01*
X40045238Y-33500000D01*
X40092857Y-33547619D01*
X40140476Y-33642857D01*
X40140476Y-33738095D01*
X40092857Y-33880952D01*
X39521428Y-34452380D01*
X40140476Y-34452380D01*
X40473809Y-33452380D02*
X41140476Y-33452380D01*
X40711904Y-34452380D01*
X48552380Y-36761904D02*
X47552380Y-36761904D01*
X47933333Y-36761904D02*
X47885714Y-36666666D01*
X47885714Y-36476190D01*
X47933333Y-36380952D01*
X47980952Y-36333333D01*
X48076190Y-36285714D01*
X48361904Y-36285714D01*
X48457142Y-36333333D01*
X48504761Y-36380952D01*
X48552380Y-36476190D01*
X48552380Y-36666666D01*
X48504761Y-36761904D01*
X48647619Y-36095238D02*
X48647619Y-35333333D01*
X48552380Y-35095238D02*
X47885714Y-35095238D01*
X47980952Y-35095238D02*
X47933333Y-35047619D01*
X47885714Y-34952380D01*
X47885714Y-34809523D01*
X47933333Y-34714285D01*
X48028571Y-34666666D01*
X48552380Y-34666666D01*
X48028571Y-34666666D02*
X47933333Y-34619047D01*
X47885714Y-34523809D01*
X47885714Y-34380952D01*
X47933333Y-34285714D01*
X48028571Y-34238095D01*
X48552380Y-34238095D01*
X48552380Y-33619047D02*
X48504761Y-33714285D01*
X48457142Y-33761904D01*
X48361904Y-33809523D01*
X48076190Y-33809523D01*
X47980952Y-33761904D01*
X47933333Y-33714285D01*
X47885714Y-33619047D01*
X47885714Y-33476190D01*
X47933333Y-33380952D01*
X47980952Y-33333333D01*
X48076190Y-33285714D01*
X48361904Y-33285714D01*
X48457142Y-33333333D01*
X48504761Y-33380952D01*
X48552380Y-33476190D01*
X48552380Y-33619047D01*
X47885714Y-33000000D02*
X47885714Y-32619047D01*
X47552380Y-32857142D02*
X48409523Y-32857142D01*
X48504761Y-32809523D01*
X48552380Y-32714285D01*
X48552380Y-32619047D01*
X48552380Y-32142857D02*
X48504761Y-32238095D01*
X48457142Y-32285714D01*
X48361904Y-32333333D01*
X48076190Y-32333333D01*
X47980952Y-32285714D01*
X47933333Y-32238095D01*
X47885714Y-32142857D01*
X47885714Y-32000000D01*
X47933333Y-31904761D01*
X47980952Y-31857142D01*
X48076190Y-31809523D01*
X48361904Y-31809523D01*
X48457142Y-31857142D01*
X48504761Y-31904761D01*
X48552380Y-32000000D01*
X48552380Y-32142857D01*
X48552380Y-31380952D02*
X47885714Y-31380952D01*
X48076190Y-31380952D02*
X47980952Y-31333333D01*
X47933333Y-31285714D01*
X47885714Y-31190476D01*
X47885714Y-31095238D01*
%TO.C,J26*%
X50916666Y-37602380D02*
X51440476Y-36935714D01*
X50916666Y-36935714D02*
X51440476Y-37602380D01*
X51583333Y-37697619D02*
X52345238Y-37697619D01*
X52726190Y-37602380D02*
X52630952Y-37554761D01*
X52583333Y-37459523D01*
X52583333Y-36602380D01*
X53107142Y-37602380D02*
X53107142Y-36935714D01*
X53107142Y-36602380D02*
X53059523Y-36650000D01*
X53107142Y-36697619D01*
X53154761Y-36650000D01*
X53107142Y-36602380D01*
X53107142Y-36697619D01*
X53583333Y-37602380D02*
X53583333Y-36935714D01*
X53583333Y-37030952D02*
X53630952Y-36983333D01*
X53726190Y-36935714D01*
X53869047Y-36935714D01*
X53964285Y-36983333D01*
X54011904Y-37078571D01*
X54011904Y-37602380D01*
X54011904Y-37078571D02*
X54059523Y-36983333D01*
X54154761Y-36935714D01*
X54297619Y-36935714D01*
X54392857Y-36983333D01*
X54440476Y-37078571D01*
X54440476Y-37602380D01*
X54916666Y-37602380D02*
X54916666Y-36935714D01*
X54916666Y-36602380D02*
X54869047Y-36650000D01*
X54916666Y-36697619D01*
X54964285Y-36650000D01*
X54916666Y-36602380D01*
X54916666Y-36697619D01*
X55250000Y-36935714D02*
X55630952Y-36935714D01*
X55392857Y-36602380D02*
X55392857Y-37459523D01*
X55440476Y-37554761D01*
X55535714Y-37602380D01*
X55630952Y-37602380D01*
X52440476Y-38502380D02*
X52440476Y-39216666D01*
X52392857Y-39359523D01*
X52297619Y-39454761D01*
X52154761Y-39502380D01*
X52059523Y-39502380D01*
X52869047Y-38597619D02*
X52916666Y-38550000D01*
X53011904Y-38502380D01*
X53250000Y-38502380D01*
X53345238Y-38550000D01*
X53392857Y-38597619D01*
X53440476Y-38692857D01*
X53440476Y-38788095D01*
X53392857Y-38930952D01*
X52821428Y-39502380D01*
X53440476Y-39502380D01*
X54297619Y-38502380D02*
X54107142Y-38502380D01*
X54011904Y-38550000D01*
X53964285Y-38597619D01*
X53869047Y-38740476D01*
X53821428Y-38930952D01*
X53821428Y-39311904D01*
X53869047Y-39407142D01*
X53916666Y-39454761D01*
X54011904Y-39502380D01*
X54202380Y-39502380D01*
X54297619Y-39454761D01*
X54345238Y-39407142D01*
X54392857Y-39311904D01*
X54392857Y-39073809D01*
X54345238Y-38978571D01*
X54297619Y-38930952D01*
X54202380Y-38883333D01*
X54011904Y-38883333D01*
X53916666Y-38930952D01*
X53869047Y-38978571D01*
X53821428Y-39073809D01*
%TO.C,J25*%
X30440476Y-72952380D02*
X30440476Y-73666666D01*
X30392857Y-73809523D01*
X30297619Y-73904761D01*
X30154761Y-73952380D01*
X30059523Y-73952380D01*
X30869047Y-73047619D02*
X30916666Y-73000000D01*
X31011904Y-72952380D01*
X31250000Y-72952380D01*
X31345238Y-73000000D01*
X31392857Y-73047619D01*
X31440476Y-73142857D01*
X31440476Y-73238095D01*
X31392857Y-73380952D01*
X30821428Y-73952380D01*
X31440476Y-73952380D01*
X32345238Y-72952380D02*
X31869047Y-72952380D01*
X31821428Y-73428571D01*
X31869047Y-73380952D01*
X31964285Y-73333333D01*
X32202380Y-73333333D01*
X32297619Y-73380952D01*
X32345238Y-73428571D01*
X32392857Y-73523809D01*
X32392857Y-73761904D01*
X32345238Y-73857142D01*
X32297619Y-73904761D01*
X32202380Y-73952380D01*
X31964285Y-73952380D01*
X31869047Y-73904761D01*
X31821428Y-73857142D01*
X27392857Y-67602380D02*
X27392857Y-66602380D01*
X27821428Y-67602380D02*
X27821428Y-67078571D01*
X27773809Y-66983333D01*
X27678571Y-66935714D01*
X27535714Y-66935714D01*
X27440476Y-66983333D01*
X27392857Y-67030952D01*
X28440476Y-67602380D02*
X28345238Y-67554761D01*
X28297619Y-67507142D01*
X28250000Y-67411904D01*
X28250000Y-67126190D01*
X28297619Y-67030952D01*
X28345238Y-66983333D01*
X28440476Y-66935714D01*
X28583333Y-66935714D01*
X28678571Y-66983333D01*
X28726190Y-67030952D01*
X28773809Y-67126190D01*
X28773809Y-67411904D01*
X28726190Y-67507142D01*
X28678571Y-67554761D01*
X28583333Y-67602380D01*
X28440476Y-67602380D01*
X29059523Y-66935714D02*
X29440476Y-66935714D01*
X29202380Y-66602380D02*
X29202380Y-67459523D01*
X29250000Y-67554761D01*
X29345238Y-67602380D01*
X29440476Y-67602380D01*
X30154761Y-67554761D02*
X30059523Y-67602380D01*
X29869047Y-67602380D01*
X29773809Y-67554761D01*
X29726190Y-67459523D01*
X29726190Y-67078571D01*
X29773809Y-66983333D01*
X29869047Y-66935714D01*
X30059523Y-66935714D01*
X30154761Y-66983333D01*
X30202380Y-67078571D01*
X30202380Y-67173809D01*
X29726190Y-67269047D01*
X30630952Y-66935714D02*
X30630952Y-67602380D01*
X30630952Y-67030952D02*
X30678571Y-66983333D01*
X30773809Y-66935714D01*
X30916666Y-66935714D01*
X31011904Y-66983333D01*
X31059523Y-67078571D01*
X31059523Y-67602380D01*
X31964285Y-67602380D02*
X31964285Y-66602380D01*
X31964285Y-67554761D02*
X31869047Y-67602380D01*
X31678571Y-67602380D01*
X31583333Y-67554761D01*
X31535714Y-67507142D01*
X31488095Y-67411904D01*
X31488095Y-67126190D01*
X31535714Y-67030952D01*
X31583333Y-66983333D01*
X31678571Y-66935714D01*
X31869047Y-66935714D01*
X31964285Y-66983333D01*
X32202380Y-67697619D02*
X32964285Y-67697619D01*
X33059523Y-66935714D02*
X33440476Y-66935714D01*
X33202380Y-67602380D02*
X33202380Y-66745238D01*
X33250000Y-66650000D01*
X33345238Y-66602380D01*
X33440476Y-66602380D01*
X34202380Y-67602380D02*
X34202380Y-67078571D01*
X34154761Y-66983333D01*
X34059523Y-66935714D01*
X33869047Y-66935714D01*
X33773809Y-66983333D01*
X34202380Y-67554761D02*
X34107142Y-67602380D01*
X33869047Y-67602380D01*
X33773809Y-67554761D01*
X33726190Y-67459523D01*
X33726190Y-67364285D01*
X33773809Y-67269047D01*
X33869047Y-67221428D01*
X34107142Y-67221428D01*
X34202380Y-67173809D01*
X34678571Y-66935714D02*
X34678571Y-67602380D01*
X34678571Y-67030952D02*
X34726190Y-66983333D01*
X34821428Y-66935714D01*
X34964285Y-66935714D01*
X35059523Y-66983333D01*
X35107142Y-67078571D01*
X35107142Y-67602380D01*
%TO.C,J24*%
X52440476Y-53002380D02*
X52440476Y-53716666D01*
X52392857Y-53859523D01*
X52297619Y-53954761D01*
X52154761Y-54002380D01*
X52059523Y-54002380D01*
X52869047Y-53097619D02*
X52916666Y-53050000D01*
X53011904Y-53002380D01*
X53250000Y-53002380D01*
X53345238Y-53050000D01*
X53392857Y-53097619D01*
X53440476Y-53192857D01*
X53440476Y-53288095D01*
X53392857Y-53430952D01*
X52821428Y-54002380D01*
X53440476Y-54002380D01*
X54297619Y-53335714D02*
X54297619Y-54002380D01*
X54059523Y-52954761D02*
X53821428Y-53669047D01*
X54440476Y-53669047D01*
X50940476Y-45185714D02*
X51178571Y-45852380D01*
X51416666Y-45185714D02*
X51178571Y-45852380D01*
X51083333Y-46090476D01*
X51035714Y-46138095D01*
X50940476Y-46185714D01*
X51559523Y-45947619D02*
X52321428Y-45947619D01*
X52702380Y-45852380D02*
X52607142Y-45804761D01*
X52559523Y-45709523D01*
X52559523Y-44852380D01*
X53083333Y-45852380D02*
X53083333Y-45185714D01*
X53083333Y-44852380D02*
X53035714Y-44900000D01*
X53083333Y-44947619D01*
X53130952Y-44900000D01*
X53083333Y-44852380D01*
X53083333Y-44947619D01*
X53559523Y-45852380D02*
X53559523Y-45185714D01*
X53559523Y-45280952D02*
X53607142Y-45233333D01*
X53702380Y-45185714D01*
X53845238Y-45185714D01*
X53940476Y-45233333D01*
X53988095Y-45328571D01*
X53988095Y-45852380D01*
X53988095Y-45328571D02*
X54035714Y-45233333D01*
X54130952Y-45185714D01*
X54273809Y-45185714D01*
X54369047Y-45233333D01*
X54416666Y-45328571D01*
X54416666Y-45852380D01*
X54892857Y-45852380D02*
X54892857Y-45185714D01*
X54892857Y-44852380D02*
X54845238Y-44900000D01*
X54892857Y-44947619D01*
X54940476Y-44900000D01*
X54892857Y-44852380D01*
X54892857Y-44947619D01*
X55226190Y-45185714D02*
X55607142Y-45185714D01*
X55369047Y-44852380D02*
X55369047Y-45709523D01*
X55416666Y-45804761D01*
X55511904Y-45852380D01*
X55607142Y-45852380D01*
%TO.C,J23*%
X39440476Y-72952380D02*
X39440476Y-73666666D01*
X39392857Y-73809523D01*
X39297619Y-73904761D01*
X39154761Y-73952380D01*
X39059523Y-73952380D01*
X39869047Y-73047619D02*
X39916666Y-73000000D01*
X40011904Y-72952380D01*
X40250000Y-72952380D01*
X40345238Y-73000000D01*
X40392857Y-73047619D01*
X40440476Y-73142857D01*
X40440476Y-73238095D01*
X40392857Y-73380952D01*
X39821428Y-73952380D01*
X40440476Y-73952380D01*
X40773809Y-72952380D02*
X41392857Y-72952380D01*
X41059523Y-73333333D01*
X41202380Y-73333333D01*
X41297619Y-73380952D01*
X41345238Y-73428571D01*
X41392857Y-73523809D01*
X41392857Y-73761904D01*
X41345238Y-73857142D01*
X41297619Y-73904761D01*
X41202380Y-73952380D01*
X40916666Y-73952380D01*
X40821428Y-73904761D01*
X40773809Y-73857142D01*
X37416666Y-66935714D02*
X37416666Y-67935714D01*
X37416666Y-66983333D02*
X37511904Y-66935714D01*
X37702380Y-66935714D01*
X37797619Y-66983333D01*
X37845238Y-67030952D01*
X37892857Y-67126190D01*
X37892857Y-67411904D01*
X37845238Y-67507142D01*
X37797619Y-67554761D01*
X37702380Y-67602380D01*
X37511904Y-67602380D01*
X37416666Y-67554761D01*
X38750000Y-67602380D02*
X38750000Y-67078571D01*
X38702380Y-66983333D01*
X38607142Y-66935714D01*
X38416666Y-66935714D01*
X38321428Y-66983333D01*
X38750000Y-67554761D02*
X38654761Y-67602380D01*
X38416666Y-67602380D01*
X38321428Y-67554761D01*
X38273809Y-67459523D01*
X38273809Y-67364285D01*
X38321428Y-67269047D01*
X38416666Y-67221428D01*
X38654761Y-67221428D01*
X38750000Y-67173809D01*
X39226190Y-67602380D02*
X39226190Y-66935714D01*
X39226190Y-67126190D02*
X39273809Y-67030952D01*
X39321428Y-66983333D01*
X39416666Y-66935714D01*
X39511904Y-66935714D01*
X39702380Y-66935714D02*
X40083333Y-66935714D01*
X39845238Y-66602380D02*
X39845238Y-67459523D01*
X39892857Y-67554761D01*
X39988095Y-67602380D01*
X40083333Y-67602380D01*
X40178571Y-67697619D02*
X40940476Y-67697619D01*
X41035714Y-66935714D02*
X41416666Y-66935714D01*
X41178571Y-67602380D02*
X41178571Y-66745238D01*
X41226190Y-66650000D01*
X41321428Y-66602380D01*
X41416666Y-66602380D01*
X42178571Y-67602380D02*
X42178571Y-67078571D01*
X42130952Y-66983333D01*
X42035714Y-66935714D01*
X41845238Y-66935714D01*
X41749999Y-66983333D01*
X42178571Y-67554761D02*
X42083333Y-67602380D01*
X41845238Y-67602380D01*
X41749999Y-67554761D01*
X41702380Y-67459523D01*
X41702380Y-67364285D01*
X41749999Y-67269047D01*
X41845238Y-67221428D01*
X42083333Y-67221428D01*
X42178571Y-67173809D01*
X42654761Y-66935714D02*
X42654761Y-67602380D01*
X42654761Y-67030952D02*
X42702380Y-66983333D01*
X42797619Y-66935714D01*
X42940476Y-66935714D01*
X43035714Y-66983333D01*
X43083333Y-67078571D01*
X43083333Y-67602380D01*
%TO.C,J22*%
X22282380Y-42809523D02*
X22996666Y-42809523D01*
X23139523Y-42857142D01*
X23234761Y-42952380D01*
X23282380Y-43095238D01*
X23282380Y-43190476D01*
X22377619Y-42380952D02*
X22330000Y-42333333D01*
X22282380Y-42238095D01*
X22282380Y-42000000D01*
X22330000Y-41904761D01*
X22377619Y-41857142D01*
X22472857Y-41809523D01*
X22568095Y-41809523D01*
X22710952Y-41857142D01*
X23282380Y-42428571D01*
X23282380Y-41809523D01*
X22377619Y-41428571D02*
X22330000Y-41380952D01*
X22282380Y-41285714D01*
X22282380Y-41047619D01*
X22330000Y-40952380D01*
X22377619Y-40904761D01*
X22472857Y-40857142D01*
X22568095Y-40857142D01*
X22710952Y-40904761D01*
X23282380Y-41476190D01*
X23282380Y-40857142D01*
%TO.C,J21*%
X48440476Y-72952380D02*
X48440476Y-73666666D01*
X48392857Y-73809523D01*
X48297619Y-73904761D01*
X48154761Y-73952380D01*
X48059523Y-73952380D01*
X48869047Y-73047619D02*
X48916666Y-73000000D01*
X49011904Y-72952380D01*
X49250000Y-72952380D01*
X49345238Y-73000000D01*
X49392857Y-73047619D01*
X49440476Y-73142857D01*
X49440476Y-73238095D01*
X49392857Y-73380952D01*
X48821428Y-73952380D01*
X49440476Y-73952380D01*
X50392857Y-73952380D02*
X49821428Y-73952380D01*
X50107142Y-73952380D02*
X50107142Y-72952380D01*
X50011904Y-73095238D01*
X49916666Y-73190476D01*
X49821428Y-73238095D01*
X45511904Y-66935714D02*
X45892857Y-66935714D01*
X45654761Y-66602380D02*
X45654761Y-67459523D01*
X45702380Y-67554761D01*
X45797619Y-67602380D01*
X45892857Y-67602380D01*
X46226190Y-67602380D02*
X46226190Y-66602380D01*
X46654761Y-67602380D02*
X46654761Y-67078571D01*
X46607142Y-66983333D01*
X46511904Y-66935714D01*
X46369047Y-66935714D01*
X46273809Y-66983333D01*
X46226190Y-67030952D01*
X47511904Y-67554761D02*
X47416666Y-67602380D01*
X47226190Y-67602380D01*
X47130952Y-67554761D01*
X47083333Y-67459523D01*
X47083333Y-67078571D01*
X47130952Y-66983333D01*
X47226190Y-66935714D01*
X47416666Y-66935714D01*
X47511904Y-66983333D01*
X47559523Y-67078571D01*
X47559523Y-67173809D01*
X47083333Y-67269047D01*
X47988095Y-67602380D02*
X47988095Y-66935714D01*
X47988095Y-67126190D02*
X48035714Y-67030952D01*
X48083333Y-66983333D01*
X48178571Y-66935714D01*
X48273809Y-66935714D01*
X48607142Y-67602380D02*
X48607142Y-66935714D01*
X48607142Y-67030952D02*
X48654761Y-66983333D01*
X48750000Y-66935714D01*
X48892857Y-66935714D01*
X48988095Y-66983333D01*
X49035714Y-67078571D01*
X49035714Y-67602380D01*
X49035714Y-67078571D02*
X49083333Y-66983333D01*
X49178571Y-66935714D01*
X49321428Y-66935714D01*
X49416666Y-66983333D01*
X49464285Y-67078571D01*
X49464285Y-67602380D01*
X49940476Y-67602380D02*
X49940476Y-66935714D01*
X49940476Y-66602380D02*
X49892857Y-66650000D01*
X49940476Y-66697619D01*
X49988095Y-66650000D01*
X49940476Y-66602380D01*
X49940476Y-66697619D01*
X50369047Y-67554761D02*
X50464285Y-67602380D01*
X50654761Y-67602380D01*
X50750000Y-67554761D01*
X50797619Y-67459523D01*
X50797619Y-67411904D01*
X50750000Y-67316666D01*
X50654761Y-67269047D01*
X50511904Y-67269047D01*
X50416666Y-67221428D01*
X50369047Y-67126190D01*
X50369047Y-67078571D01*
X50416666Y-66983333D01*
X50511904Y-66935714D01*
X50654761Y-66935714D01*
X50750000Y-66983333D01*
X51083333Y-66935714D02*
X51464285Y-66935714D01*
X51226190Y-66602380D02*
X51226190Y-67459523D01*
X51273809Y-67554761D01*
X51369047Y-67602380D01*
X51464285Y-67602380D01*
X51940476Y-67602380D02*
X51845238Y-67554761D01*
X51797619Y-67507142D01*
X51750000Y-67411904D01*
X51750000Y-67126190D01*
X51797619Y-67030952D01*
X51845238Y-66983333D01*
X51940476Y-66935714D01*
X52083333Y-66935714D01*
X52178571Y-66983333D01*
X52226190Y-67030952D01*
X52273809Y-67126190D01*
X52273809Y-67411904D01*
X52226190Y-67507142D01*
X52178571Y-67554761D01*
X52083333Y-67602380D01*
X51940476Y-67602380D01*
X52702380Y-67602380D02*
X52702380Y-66935714D01*
X52702380Y-67126190D02*
X52750000Y-67030952D01*
X52797619Y-66983333D01*
X52892857Y-66935714D01*
X52988095Y-66935714D01*
%TO.C,J20*%
X40190476Y-58502380D02*
X40190476Y-59216666D01*
X40142857Y-59359523D01*
X40047619Y-59454761D01*
X39904761Y-59502380D01*
X39809523Y-59502380D01*
X40619047Y-58597619D02*
X40666666Y-58550000D01*
X40761904Y-58502380D01*
X41000000Y-58502380D01*
X41095238Y-58550000D01*
X41142857Y-58597619D01*
X41190476Y-58692857D01*
X41190476Y-58788095D01*
X41142857Y-58930952D01*
X40571428Y-59502380D01*
X41190476Y-59502380D01*
X41809523Y-58502380D02*
X41904761Y-58502380D01*
X42000000Y-58550000D01*
X42047619Y-58597619D01*
X42095238Y-58692857D01*
X42142857Y-58883333D01*
X42142857Y-59121428D01*
X42095238Y-59311904D01*
X42047619Y-59407142D01*
X42000000Y-59454761D01*
X41904761Y-59502380D01*
X41809523Y-59502380D01*
X41714285Y-59454761D01*
X41666666Y-59407142D01*
X41619047Y-59311904D01*
X41571428Y-59121428D01*
X41571428Y-58883333D01*
X41619047Y-58692857D01*
X41666666Y-58597619D01*
X41714285Y-58550000D01*
X41809523Y-58502380D01*
%TO.C,J19*%
X80690476Y-49202380D02*
X80690476Y-49916666D01*
X80642857Y-50059523D01*
X80547619Y-50154761D01*
X80404761Y-50202380D01*
X80309523Y-50202380D01*
X81690476Y-50202380D02*
X81119047Y-50202380D01*
X81404761Y-50202380D02*
X81404761Y-49202380D01*
X81309523Y-49345238D01*
X81214285Y-49440476D01*
X81119047Y-49488095D01*
X82166666Y-50202380D02*
X82357142Y-50202380D01*
X82452380Y-50154761D01*
X82500000Y-50107142D01*
X82595238Y-49964285D01*
X82642857Y-49773809D01*
X82642857Y-49392857D01*
X82595238Y-49297619D01*
X82547619Y-49250000D01*
X82452380Y-49202380D01*
X82261904Y-49202380D01*
X82166666Y-49250000D01*
X82119047Y-49297619D01*
X82071428Y-49392857D01*
X82071428Y-49630952D01*
X82119047Y-49726190D01*
X82166666Y-49773809D01*
X82261904Y-49821428D01*
X82452380Y-49821428D01*
X82547619Y-49773809D01*
X82595238Y-49726190D01*
X82642857Y-49630952D01*
%TO.C,J18*%
X59940476Y-72952380D02*
X59940476Y-73666666D01*
X59892857Y-73809523D01*
X59797619Y-73904761D01*
X59654761Y-73952380D01*
X59559523Y-73952380D01*
X60940476Y-73952380D02*
X60369047Y-73952380D01*
X60654761Y-73952380D02*
X60654761Y-72952380D01*
X60559523Y-73095238D01*
X60464285Y-73190476D01*
X60369047Y-73238095D01*
X61511904Y-73380952D02*
X61416666Y-73333333D01*
X61369047Y-73285714D01*
X61321428Y-73190476D01*
X61321428Y-73142857D01*
X61369047Y-73047619D01*
X61416666Y-73000000D01*
X61511904Y-72952380D01*
X61702380Y-72952380D01*
X61797619Y-73000000D01*
X61845238Y-73047619D01*
X61892857Y-73142857D01*
X61892857Y-73190476D01*
X61845238Y-73285714D01*
X61797619Y-73333333D01*
X61702380Y-73380952D01*
X61511904Y-73380952D01*
X61416666Y-73428571D01*
X61369047Y-73476190D01*
X61321428Y-73571428D01*
X61321428Y-73761904D01*
X61369047Y-73857142D01*
X61416666Y-73904761D01*
X61511904Y-73952380D01*
X61702380Y-73952380D01*
X61797619Y-73904761D01*
X61845238Y-73857142D01*
X61892857Y-73761904D01*
X61892857Y-73571428D01*
X61845238Y-73476190D01*
X61797619Y-73428571D01*
X61702380Y-73380952D01*
X58297619Y-67554761D02*
X58202380Y-67602380D01*
X58011904Y-67602380D01*
X57916666Y-67554761D01*
X57869047Y-67459523D01*
X57869047Y-67078571D01*
X57916666Y-66983333D01*
X58011904Y-66935714D01*
X58202380Y-66935714D01*
X58297619Y-66983333D01*
X58345238Y-67078571D01*
X58345238Y-67173809D01*
X57869047Y-67269047D01*
X58678571Y-67602380D02*
X59202380Y-66935714D01*
X58678571Y-66935714D02*
X59202380Y-67602380D01*
X59440476Y-66935714D02*
X59821428Y-66935714D01*
X59583333Y-66602380D02*
X59583333Y-67459523D01*
X59630952Y-67554761D01*
X59726190Y-67602380D01*
X59821428Y-67602380D01*
X60154761Y-67602380D02*
X60154761Y-66935714D01*
X60154761Y-67126190D02*
X60202380Y-67030952D01*
X60250000Y-66983333D01*
X60345238Y-66935714D01*
X60440476Y-66935714D01*
X61202380Y-66935714D02*
X61202380Y-67602380D01*
X60773809Y-66935714D02*
X60773809Y-67459523D01*
X60821428Y-67554761D01*
X60916666Y-67602380D01*
X61059523Y-67602380D01*
X61154761Y-67554761D01*
X61202380Y-67507142D01*
X62107142Y-67602380D02*
X62107142Y-66602380D01*
X62107142Y-67554761D02*
X62011904Y-67602380D01*
X61821428Y-67602380D01*
X61726190Y-67554761D01*
X61678571Y-67507142D01*
X61630952Y-67411904D01*
X61630952Y-67126190D01*
X61678571Y-67030952D01*
X61726190Y-66983333D01*
X61821428Y-66935714D01*
X62011904Y-66935714D01*
X62107142Y-66983333D01*
X62964285Y-67554761D02*
X62869047Y-67602380D01*
X62678571Y-67602380D01*
X62583333Y-67554761D01*
X62535714Y-67459523D01*
X62535714Y-67078571D01*
X62583333Y-66983333D01*
X62678571Y-66935714D01*
X62869047Y-66935714D01*
X62964285Y-66983333D01*
X63011904Y-67078571D01*
X63011904Y-67173809D01*
X62535714Y-67269047D01*
X63440476Y-67602380D02*
X63440476Y-66935714D01*
X63440476Y-67126190D02*
X63488095Y-67030952D01*
X63535714Y-66983333D01*
X63630952Y-66935714D01*
X63726190Y-66935714D01*
%TO.C,J17*%
X32940476Y-20152380D02*
X32940476Y-20866666D01*
X32892857Y-21009523D01*
X32797619Y-21104761D01*
X32654761Y-21152380D01*
X32559523Y-21152380D01*
X33940476Y-21152380D02*
X33369047Y-21152380D01*
X33654761Y-21152380D02*
X33654761Y-20152380D01*
X33559523Y-20295238D01*
X33464285Y-20390476D01*
X33369047Y-20438095D01*
X34273809Y-20152380D02*
X34940476Y-20152380D01*
X34511904Y-21152380D01*
X31011904Y-29302380D02*
X31011904Y-28302380D01*
X31011904Y-28683333D02*
X31107142Y-28635714D01*
X31297619Y-28635714D01*
X31392857Y-28683333D01*
X31440476Y-28730952D01*
X31488095Y-28826190D01*
X31488095Y-29111904D01*
X31440476Y-29207142D01*
X31392857Y-29254761D01*
X31297619Y-29302380D01*
X31107142Y-29302380D01*
X31011904Y-29254761D01*
X31916666Y-29302380D02*
X31916666Y-28635714D01*
X31916666Y-28730952D02*
X31964285Y-28683333D01*
X32059523Y-28635714D01*
X32202380Y-28635714D01*
X32297619Y-28683333D01*
X32345238Y-28778571D01*
X32345238Y-29302380D01*
X32345238Y-28778571D02*
X32392857Y-28683333D01*
X32488095Y-28635714D01*
X32630952Y-28635714D01*
X32726190Y-28683333D01*
X32773809Y-28778571D01*
X32773809Y-29302380D01*
X33630952Y-29254761D02*
X33535714Y-29302380D01*
X33345238Y-29302380D01*
X33250000Y-29254761D01*
X33202380Y-29159523D01*
X33202380Y-28778571D01*
X33250000Y-28683333D01*
X33345238Y-28635714D01*
X33535714Y-28635714D01*
X33630952Y-28683333D01*
X33678571Y-28778571D01*
X33678571Y-28873809D01*
X33202380Y-28969047D01*
X34059523Y-28397619D02*
X34107142Y-28350000D01*
X34202380Y-28302380D01*
X34440476Y-28302380D01*
X34535714Y-28350000D01*
X34583333Y-28397619D01*
X34630952Y-28492857D01*
X34630952Y-28588095D01*
X34583333Y-28730952D01*
X34011904Y-29302380D01*
X34630952Y-29302380D01*
X35202380Y-28730952D02*
X35107142Y-28683333D01*
X35059523Y-28635714D01*
X35011904Y-28540476D01*
X35011904Y-28492857D01*
X35059523Y-28397619D01*
X35107142Y-28350000D01*
X35202380Y-28302380D01*
X35392857Y-28302380D01*
X35488095Y-28350000D01*
X35535714Y-28397619D01*
X35583333Y-28492857D01*
X35583333Y-28540476D01*
X35535714Y-28635714D01*
X35488095Y-28683333D01*
X35392857Y-28730952D01*
X35202380Y-28730952D01*
X35107142Y-28778571D01*
X35059523Y-28826190D01*
X35011904Y-28921428D01*
X35011904Y-29111904D01*
X35059523Y-29207142D01*
X35107142Y-29254761D01*
X35202380Y-29302380D01*
X35392857Y-29302380D01*
X35488095Y-29254761D01*
X35535714Y-29207142D01*
X35583333Y-29111904D01*
X35583333Y-28921428D01*
X35535714Y-28826190D01*
X35488095Y-28778571D01*
X35392857Y-28730952D01*
X36202380Y-28302380D02*
X36297619Y-28302380D01*
X36392857Y-28350000D01*
X36440476Y-28397619D01*
X36488095Y-28492857D01*
X36535714Y-28683333D01*
X36535714Y-28921428D01*
X36488095Y-29111904D01*
X36440476Y-29207142D01*
X36392857Y-29254761D01*
X36297619Y-29302380D01*
X36202380Y-29302380D01*
X36107142Y-29254761D01*
X36059523Y-29207142D01*
X36011904Y-29111904D01*
X35964285Y-28921428D01*
X35964285Y-28683333D01*
X36011904Y-28492857D01*
X36059523Y-28397619D01*
X36107142Y-28350000D01*
X36202380Y-28302380D01*
%TO.C,J16*%
X79690476Y-66202380D02*
X79690476Y-66916666D01*
X79642857Y-67059523D01*
X79547619Y-67154761D01*
X79404761Y-67202380D01*
X79309523Y-67202380D01*
X80690476Y-67202380D02*
X80119047Y-67202380D01*
X80404761Y-67202380D02*
X80404761Y-66202380D01*
X80309523Y-66345238D01*
X80214285Y-66440476D01*
X80119047Y-66488095D01*
X81547619Y-66202380D02*
X81357142Y-66202380D01*
X81261904Y-66250000D01*
X81214285Y-66297619D01*
X81119047Y-66440476D01*
X81071428Y-66630952D01*
X81071428Y-67011904D01*
X81119047Y-67107142D01*
X81166666Y-67154761D01*
X81261904Y-67202380D01*
X81452380Y-67202380D01*
X81547619Y-67154761D01*
X81595238Y-67107142D01*
X81642857Y-67011904D01*
X81642857Y-66773809D01*
X81595238Y-66678571D01*
X81547619Y-66630952D01*
X81452380Y-66583333D01*
X81261904Y-66583333D01*
X81166666Y-66630952D01*
X81119047Y-66678571D01*
X81071428Y-66773809D01*
X78892857Y-55785714D02*
X78892857Y-56785714D01*
X78892857Y-55833333D02*
X78988095Y-55785714D01*
X79178571Y-55785714D01*
X79273809Y-55833333D01*
X79321428Y-55880952D01*
X79369047Y-55976190D01*
X79369047Y-56261904D01*
X79321428Y-56357142D01*
X79273809Y-56404761D01*
X79178571Y-56452380D01*
X78988095Y-56452380D01*
X78892857Y-56404761D01*
X79797619Y-56452380D02*
X79797619Y-55785714D01*
X79797619Y-55976190D02*
X79845238Y-55880952D01*
X79892857Y-55833333D01*
X79988095Y-55785714D01*
X80083333Y-55785714D01*
X80559523Y-56452380D02*
X80464285Y-56404761D01*
X80416666Y-56357142D01*
X80369047Y-56261904D01*
X80369047Y-55976190D01*
X80416666Y-55880952D01*
X80464285Y-55833333D01*
X80559523Y-55785714D01*
X80702380Y-55785714D01*
X80797619Y-55833333D01*
X80845238Y-55880952D01*
X80892857Y-55976190D01*
X80892857Y-56261904D01*
X80845238Y-56357142D01*
X80797619Y-56404761D01*
X80702380Y-56452380D01*
X80559523Y-56452380D01*
X81321428Y-56452380D02*
X81321428Y-55452380D01*
X81321428Y-55833333D02*
X81416666Y-55785714D01*
X81607142Y-55785714D01*
X81702380Y-55833333D01*
X81750000Y-55880952D01*
X81797619Y-55976190D01*
X81797619Y-56261904D01*
X81750000Y-56357142D01*
X81702380Y-56404761D01*
X81607142Y-56452380D01*
X81416666Y-56452380D01*
X81321428Y-56404761D01*
X82607142Y-56404761D02*
X82511904Y-56452380D01*
X82321428Y-56452380D01*
X82226190Y-56404761D01*
X82178571Y-56309523D01*
X82178571Y-55928571D01*
X82226190Y-55833333D01*
X82321428Y-55785714D01*
X82511904Y-55785714D01*
X82607142Y-55833333D01*
X82654761Y-55928571D01*
X82654761Y-56023809D01*
X82178571Y-56119047D01*
%TO.C,J15*%
X131690476Y-48702380D02*
X131690476Y-49416666D01*
X131642857Y-49559523D01*
X131547619Y-49654761D01*
X131404761Y-49702380D01*
X131309523Y-49702380D01*
X132690476Y-49702380D02*
X132119047Y-49702380D01*
X132404761Y-49702380D02*
X132404761Y-48702380D01*
X132309523Y-48845238D01*
X132214285Y-48940476D01*
X132119047Y-48988095D01*
X133595238Y-48702380D02*
X133119047Y-48702380D01*
X133071428Y-49178571D01*
X133119047Y-49130952D01*
X133214285Y-49083333D01*
X133452380Y-49083333D01*
X133547619Y-49130952D01*
X133595238Y-49178571D01*
X133642857Y-49273809D01*
X133642857Y-49511904D01*
X133595238Y-49607142D01*
X133547619Y-49654761D01*
X133452380Y-49702380D01*
X133214285Y-49702380D01*
X133119047Y-49654761D01*
X133071428Y-49607142D01*
%TO.C,J14*%
X116690476Y-48752380D02*
X116690476Y-49466666D01*
X116642857Y-49609523D01*
X116547619Y-49704761D01*
X116404761Y-49752380D01*
X116309523Y-49752380D01*
X117690476Y-49752380D02*
X117119047Y-49752380D01*
X117404761Y-49752380D02*
X117404761Y-48752380D01*
X117309523Y-48895238D01*
X117214285Y-48990476D01*
X117119047Y-49038095D01*
X118547619Y-49085714D02*
X118547619Y-49752380D01*
X118309523Y-48704761D02*
X118071428Y-49419047D01*
X118690476Y-49419047D01*
X115166666Y-41602380D02*
X115690476Y-40935714D01*
X115166666Y-40935714D02*
X115690476Y-41602380D01*
X115833333Y-41697619D02*
X116595238Y-41697619D01*
X116976190Y-41602380D02*
X116880952Y-41554761D01*
X116833333Y-41459523D01*
X116833333Y-40602380D01*
X117357142Y-41602380D02*
X117357142Y-40935714D01*
X117357142Y-40602380D02*
X117309523Y-40650000D01*
X117357142Y-40697619D01*
X117404761Y-40650000D01*
X117357142Y-40602380D01*
X117357142Y-40697619D01*
X117833333Y-41602380D02*
X117833333Y-40935714D01*
X117833333Y-41030952D02*
X117880952Y-40983333D01*
X117976190Y-40935714D01*
X118119047Y-40935714D01*
X118214285Y-40983333D01*
X118261904Y-41078571D01*
X118261904Y-41602380D01*
X118261904Y-41078571D02*
X118309523Y-40983333D01*
X118404761Y-40935714D01*
X118547619Y-40935714D01*
X118642857Y-40983333D01*
X118690476Y-41078571D01*
X118690476Y-41602380D01*
X119166666Y-41602380D02*
X119166666Y-40935714D01*
X119166666Y-40602380D02*
X119119047Y-40650000D01*
X119166666Y-40697619D01*
X119214285Y-40650000D01*
X119166666Y-40602380D01*
X119166666Y-40697619D01*
X119500000Y-40935714D02*
X119880952Y-40935714D01*
X119642857Y-40602380D02*
X119642857Y-41459523D01*
X119690476Y-41554761D01*
X119785714Y-41602380D01*
X119880952Y-41602380D01*
%TO.C,J13*%
X116690476Y-24002380D02*
X116690476Y-24716666D01*
X116642857Y-24859523D01*
X116547619Y-24954761D01*
X116404761Y-25002380D01*
X116309523Y-25002380D01*
X117690476Y-25002380D02*
X117119047Y-25002380D01*
X117404761Y-25002380D02*
X117404761Y-24002380D01*
X117309523Y-24145238D01*
X117214285Y-24240476D01*
X117119047Y-24288095D01*
X118023809Y-24002380D02*
X118642857Y-24002380D01*
X118309523Y-24383333D01*
X118452380Y-24383333D01*
X118547619Y-24430952D01*
X118595238Y-24478571D01*
X118642857Y-24573809D01*
X118642857Y-24811904D01*
X118595238Y-24907142D01*
X118547619Y-24954761D01*
X118452380Y-25002380D01*
X118166666Y-25002380D01*
X118071428Y-24954761D01*
X118023809Y-24907142D01*
X113642857Y-16852380D02*
X113642857Y-15852380D01*
X114071428Y-16852380D02*
X114071428Y-16328571D01*
X114023809Y-16233333D01*
X113928571Y-16185714D01*
X113785714Y-16185714D01*
X113690476Y-16233333D01*
X113642857Y-16280952D01*
X114690476Y-16852380D02*
X114595238Y-16804761D01*
X114547619Y-16757142D01*
X114500000Y-16661904D01*
X114500000Y-16376190D01*
X114547619Y-16280952D01*
X114595238Y-16233333D01*
X114690476Y-16185714D01*
X114833333Y-16185714D01*
X114928571Y-16233333D01*
X114976190Y-16280952D01*
X115023809Y-16376190D01*
X115023809Y-16661904D01*
X114976190Y-16757142D01*
X114928571Y-16804761D01*
X114833333Y-16852380D01*
X114690476Y-16852380D01*
X115309523Y-16185714D02*
X115690476Y-16185714D01*
X115452380Y-15852380D02*
X115452380Y-16709523D01*
X115500000Y-16804761D01*
X115595238Y-16852380D01*
X115690476Y-16852380D01*
X116404761Y-16804761D02*
X116309523Y-16852380D01*
X116119047Y-16852380D01*
X116023809Y-16804761D01*
X115976190Y-16709523D01*
X115976190Y-16328571D01*
X116023809Y-16233333D01*
X116119047Y-16185714D01*
X116309523Y-16185714D01*
X116404761Y-16233333D01*
X116452380Y-16328571D01*
X116452380Y-16423809D01*
X115976190Y-16519047D01*
X116880952Y-16185714D02*
X116880952Y-16852380D01*
X116880952Y-16280952D02*
X116928571Y-16233333D01*
X117023809Y-16185714D01*
X117166666Y-16185714D01*
X117261904Y-16233333D01*
X117309523Y-16328571D01*
X117309523Y-16852380D01*
X118214285Y-16852380D02*
X118214285Y-15852380D01*
X118214285Y-16804761D02*
X118119047Y-16852380D01*
X117928571Y-16852380D01*
X117833333Y-16804761D01*
X117785714Y-16757142D01*
X117738095Y-16661904D01*
X117738095Y-16376190D01*
X117785714Y-16280952D01*
X117833333Y-16233333D01*
X117928571Y-16185714D01*
X118119047Y-16185714D01*
X118214285Y-16233333D01*
X118452380Y-16947619D02*
X119214285Y-16947619D01*
X119309523Y-16185714D02*
X119690476Y-16185714D01*
X119452380Y-16852380D02*
X119452380Y-15995238D01*
X119500000Y-15900000D01*
X119595238Y-15852380D01*
X119690476Y-15852380D01*
X120452380Y-16852380D02*
X120452380Y-16328571D01*
X120404761Y-16233333D01*
X120309523Y-16185714D01*
X120119047Y-16185714D01*
X120023809Y-16233333D01*
X120452380Y-16804761D02*
X120357142Y-16852380D01*
X120119047Y-16852380D01*
X120023809Y-16804761D01*
X119976190Y-16709523D01*
X119976190Y-16614285D01*
X120023809Y-16519047D01*
X120119047Y-16471428D01*
X120357142Y-16471428D01*
X120452380Y-16423809D01*
X120928571Y-16185714D02*
X120928571Y-16852380D01*
X120928571Y-16280952D02*
X120976190Y-16233333D01*
X121071428Y-16185714D01*
X121214285Y-16185714D01*
X121309523Y-16233333D01*
X121357142Y-16328571D01*
X121357142Y-16852380D01*
%TO.C,J12*%
X108740476Y-67702380D02*
X108740476Y-68416666D01*
X108692857Y-68559523D01*
X108597619Y-68654761D01*
X108454761Y-68702380D01*
X108359523Y-68702380D01*
X109740476Y-68702380D02*
X109169047Y-68702380D01*
X109454761Y-68702380D02*
X109454761Y-67702380D01*
X109359523Y-67845238D01*
X109264285Y-67940476D01*
X109169047Y-67988095D01*
X110121428Y-67797619D02*
X110169047Y-67750000D01*
X110264285Y-67702380D01*
X110502380Y-67702380D01*
X110597619Y-67750000D01*
X110645238Y-67797619D01*
X110692857Y-67892857D01*
X110692857Y-67988095D01*
X110645238Y-68130952D01*
X110073809Y-68702380D01*
X110692857Y-68702380D01*
X101852380Y-70583333D02*
X101328571Y-70583333D01*
X101233333Y-70630952D01*
X101185714Y-70726190D01*
X101185714Y-70916666D01*
X101233333Y-71011904D01*
X101804761Y-70583333D02*
X101852380Y-70678571D01*
X101852380Y-70916666D01*
X101804761Y-71011904D01*
X101709523Y-71059523D01*
X101614285Y-71059523D01*
X101519047Y-71011904D01*
X101471428Y-70916666D01*
X101471428Y-70678571D01*
X101423809Y-70583333D01*
X101947619Y-70345238D02*
X101947619Y-69583333D01*
X101852380Y-69345238D02*
X101185714Y-69345238D01*
X101280952Y-69345238D02*
X101233333Y-69297619D01*
X101185714Y-69202380D01*
X101185714Y-69059523D01*
X101233333Y-68964285D01*
X101328571Y-68916666D01*
X101852380Y-68916666D01*
X101328571Y-68916666D02*
X101233333Y-68869047D01*
X101185714Y-68773809D01*
X101185714Y-68630952D01*
X101233333Y-68535714D01*
X101328571Y-68488095D01*
X101852380Y-68488095D01*
X101852380Y-67869047D02*
X101804761Y-67964285D01*
X101757142Y-68011904D01*
X101661904Y-68059523D01*
X101376190Y-68059523D01*
X101280952Y-68011904D01*
X101233333Y-67964285D01*
X101185714Y-67869047D01*
X101185714Y-67726190D01*
X101233333Y-67630952D01*
X101280952Y-67583333D01*
X101376190Y-67535714D01*
X101661904Y-67535714D01*
X101757142Y-67583333D01*
X101804761Y-67630952D01*
X101852380Y-67726190D01*
X101852380Y-67869047D01*
X101185714Y-67250000D02*
X101185714Y-66869047D01*
X100852380Y-67107142D02*
X101709523Y-67107142D01*
X101804761Y-67059523D01*
X101852380Y-66964285D01*
X101852380Y-66869047D01*
X101852380Y-66392857D02*
X101804761Y-66488095D01*
X101757142Y-66535714D01*
X101661904Y-66583333D01*
X101376190Y-66583333D01*
X101280952Y-66535714D01*
X101233333Y-66488095D01*
X101185714Y-66392857D01*
X101185714Y-66250000D01*
X101233333Y-66154761D01*
X101280952Y-66107142D01*
X101376190Y-66059523D01*
X101661904Y-66059523D01*
X101757142Y-66107142D01*
X101804761Y-66154761D01*
X101852380Y-66250000D01*
X101852380Y-66392857D01*
X101852380Y-65630952D02*
X101185714Y-65630952D01*
X101376190Y-65630952D02*
X101280952Y-65583333D01*
X101233333Y-65535714D01*
X101185714Y-65440476D01*
X101185714Y-65345238D01*
%TO.C,J11*%
X86640476Y-67702380D02*
X86640476Y-68416666D01*
X86592857Y-68559523D01*
X86497619Y-68654761D01*
X86354761Y-68702380D01*
X86259523Y-68702380D01*
X87640476Y-68702380D02*
X87069047Y-68702380D01*
X87354761Y-68702380D02*
X87354761Y-67702380D01*
X87259523Y-67845238D01*
X87164285Y-67940476D01*
X87069047Y-67988095D01*
X88592857Y-68702380D02*
X88021428Y-68702380D01*
X88307142Y-68702380D02*
X88307142Y-67702380D01*
X88211904Y-67845238D01*
X88116666Y-67940476D01*
X88021428Y-67988095D01*
X96052380Y-71011904D02*
X95052380Y-71011904D01*
X95433333Y-71011904D02*
X95385714Y-70916666D01*
X95385714Y-70726190D01*
X95433333Y-70630952D01*
X95480952Y-70583333D01*
X95576190Y-70535714D01*
X95861904Y-70535714D01*
X95957142Y-70583333D01*
X96004761Y-70630952D01*
X96052380Y-70726190D01*
X96052380Y-70916666D01*
X96004761Y-71011904D01*
X96147619Y-70345238D02*
X96147619Y-69583333D01*
X96052380Y-69345238D02*
X95385714Y-69345238D01*
X95480952Y-69345238D02*
X95433333Y-69297619D01*
X95385714Y-69202380D01*
X95385714Y-69059523D01*
X95433333Y-68964285D01*
X95528571Y-68916666D01*
X96052380Y-68916666D01*
X95528571Y-68916666D02*
X95433333Y-68869047D01*
X95385714Y-68773809D01*
X95385714Y-68630952D01*
X95433333Y-68535714D01*
X95528571Y-68488095D01*
X96052380Y-68488095D01*
X96052380Y-67869047D02*
X96004761Y-67964285D01*
X95957142Y-68011904D01*
X95861904Y-68059523D01*
X95576190Y-68059523D01*
X95480952Y-68011904D01*
X95433333Y-67964285D01*
X95385714Y-67869047D01*
X95385714Y-67726190D01*
X95433333Y-67630952D01*
X95480952Y-67583333D01*
X95576190Y-67535714D01*
X95861904Y-67535714D01*
X95957142Y-67583333D01*
X96004761Y-67630952D01*
X96052380Y-67726190D01*
X96052380Y-67869047D01*
X95385714Y-67250000D02*
X95385714Y-66869047D01*
X95052380Y-67107142D02*
X95909523Y-67107142D01*
X96004761Y-67059523D01*
X96052380Y-66964285D01*
X96052380Y-66869047D01*
X96052380Y-66392857D02*
X96004761Y-66488095D01*
X95957142Y-66535714D01*
X95861904Y-66583333D01*
X95576190Y-66583333D01*
X95480952Y-66535714D01*
X95433333Y-66488095D01*
X95385714Y-66392857D01*
X95385714Y-66250000D01*
X95433333Y-66154761D01*
X95480952Y-66107142D01*
X95576190Y-66059523D01*
X95861904Y-66059523D01*
X95957142Y-66107142D01*
X96004761Y-66154761D01*
X96052380Y-66250000D01*
X96052380Y-66392857D01*
X96052380Y-65630952D02*
X95385714Y-65630952D01*
X95576190Y-65630952D02*
X95480952Y-65583333D01*
X95433333Y-65535714D01*
X95385714Y-65440476D01*
X95385714Y-65345238D01*
%TO.C,J10*%
X125440476Y-48752380D02*
X125440476Y-49466666D01*
X125392857Y-49609523D01*
X125297619Y-49704761D01*
X125154761Y-49752380D01*
X125059523Y-49752380D01*
X126440476Y-49752380D02*
X125869047Y-49752380D01*
X126154761Y-49752380D02*
X126154761Y-48752380D01*
X126059523Y-48895238D01*
X125964285Y-48990476D01*
X125869047Y-49038095D01*
X127059523Y-48752380D02*
X127154761Y-48752380D01*
X127250000Y-48800000D01*
X127297619Y-48847619D01*
X127345238Y-48942857D01*
X127392857Y-49133333D01*
X127392857Y-49371428D01*
X127345238Y-49561904D01*
X127297619Y-49657142D01*
X127250000Y-49704761D01*
X127154761Y-49752380D01*
X127059523Y-49752380D01*
X126964285Y-49704761D01*
X126916666Y-49657142D01*
X126869047Y-49561904D01*
X126821428Y-49371428D01*
X126821428Y-49133333D01*
X126869047Y-48942857D01*
X126916666Y-48847619D01*
X126964285Y-48800000D01*
X127059523Y-48752380D01*
X123940476Y-40935714D02*
X124178571Y-41602380D01*
X124416666Y-40935714D02*
X124178571Y-41602380D01*
X124083333Y-41840476D01*
X124035714Y-41888095D01*
X123940476Y-41935714D01*
X124559523Y-41697619D02*
X125321428Y-41697619D01*
X125702380Y-41602380D02*
X125607142Y-41554761D01*
X125559523Y-41459523D01*
X125559523Y-40602380D01*
X126083333Y-41602380D02*
X126083333Y-40935714D01*
X126083333Y-40602380D02*
X126035714Y-40650000D01*
X126083333Y-40697619D01*
X126130952Y-40650000D01*
X126083333Y-40602380D01*
X126083333Y-40697619D01*
X126559523Y-41602380D02*
X126559523Y-40935714D01*
X126559523Y-41030952D02*
X126607142Y-40983333D01*
X126702380Y-40935714D01*
X126845238Y-40935714D01*
X126940476Y-40983333D01*
X126988095Y-41078571D01*
X126988095Y-41602380D01*
X126988095Y-41078571D02*
X127035714Y-40983333D01*
X127130952Y-40935714D01*
X127273809Y-40935714D01*
X127369047Y-40983333D01*
X127416666Y-41078571D01*
X127416666Y-41602380D01*
X127892857Y-41602380D02*
X127892857Y-40935714D01*
X127892857Y-40602380D02*
X127845238Y-40650000D01*
X127892857Y-40697619D01*
X127940476Y-40650000D01*
X127892857Y-40602380D01*
X127892857Y-40697619D01*
X128226190Y-40935714D02*
X128607142Y-40935714D01*
X128369047Y-40602380D02*
X128369047Y-41459523D01*
X128416666Y-41554761D01*
X128511904Y-41602380D01*
X128607142Y-41602380D01*
%TO.C,J9*%
X125916666Y-24002380D02*
X125916666Y-24716666D01*
X125869047Y-24859523D01*
X125773809Y-24954761D01*
X125630952Y-25002380D01*
X125535714Y-25002380D01*
X126440476Y-25002380D02*
X126630952Y-25002380D01*
X126726190Y-24954761D01*
X126773809Y-24907142D01*
X126869047Y-24764285D01*
X126916666Y-24573809D01*
X126916666Y-24192857D01*
X126869047Y-24097619D01*
X126821428Y-24050000D01*
X126726190Y-24002380D01*
X126535714Y-24002380D01*
X126440476Y-24050000D01*
X126392857Y-24097619D01*
X126345238Y-24192857D01*
X126345238Y-24430952D01*
X126392857Y-24526190D01*
X126440476Y-24573809D01*
X126535714Y-24621428D01*
X126726190Y-24621428D01*
X126821428Y-24573809D01*
X126869047Y-24526190D01*
X126916666Y-24430952D01*
X123416666Y-16185714D02*
X123416666Y-17185714D01*
X123416666Y-16233333D02*
X123511904Y-16185714D01*
X123702380Y-16185714D01*
X123797619Y-16233333D01*
X123845238Y-16280952D01*
X123892857Y-16376190D01*
X123892857Y-16661904D01*
X123845238Y-16757142D01*
X123797619Y-16804761D01*
X123702380Y-16852380D01*
X123511904Y-16852380D01*
X123416666Y-16804761D01*
X124750000Y-16852380D02*
X124750000Y-16328571D01*
X124702380Y-16233333D01*
X124607142Y-16185714D01*
X124416666Y-16185714D01*
X124321428Y-16233333D01*
X124750000Y-16804761D02*
X124654761Y-16852380D01*
X124416666Y-16852380D01*
X124321428Y-16804761D01*
X124273809Y-16709523D01*
X124273809Y-16614285D01*
X124321428Y-16519047D01*
X124416666Y-16471428D01*
X124654761Y-16471428D01*
X124750000Y-16423809D01*
X125226190Y-16852380D02*
X125226190Y-16185714D01*
X125226190Y-16376190D02*
X125273809Y-16280952D01*
X125321428Y-16233333D01*
X125416666Y-16185714D01*
X125511904Y-16185714D01*
X125702380Y-16185714D02*
X126083333Y-16185714D01*
X125845238Y-15852380D02*
X125845238Y-16709523D01*
X125892857Y-16804761D01*
X125988095Y-16852380D01*
X126083333Y-16852380D01*
X126178571Y-16947619D02*
X126940476Y-16947619D01*
X127035714Y-16185714D02*
X127416666Y-16185714D01*
X127178571Y-16852380D02*
X127178571Y-15995238D01*
X127226190Y-15900000D01*
X127321428Y-15852380D01*
X127416666Y-15852380D01*
X128178571Y-16852380D02*
X128178571Y-16328571D01*
X128130952Y-16233333D01*
X128035714Y-16185714D01*
X127845238Y-16185714D01*
X127750000Y-16233333D01*
X128178571Y-16804761D02*
X128083333Y-16852380D01*
X127845238Y-16852380D01*
X127750000Y-16804761D01*
X127702380Y-16709523D01*
X127702380Y-16614285D01*
X127750000Y-16519047D01*
X127845238Y-16471428D01*
X128083333Y-16471428D01*
X128178571Y-16423809D01*
X128654761Y-16185714D02*
X128654761Y-16852380D01*
X128654761Y-16280952D02*
X128702380Y-16233333D01*
X128797619Y-16185714D01*
X128940476Y-16185714D01*
X129035714Y-16233333D01*
X129083333Y-16328571D01*
X129083333Y-16852380D01*
%TO.C,J8*%
X134666666Y-24002380D02*
X134666666Y-24716666D01*
X134619047Y-24859523D01*
X134523809Y-24954761D01*
X134380952Y-25002380D01*
X134285714Y-25002380D01*
X135285714Y-24430952D02*
X135190476Y-24383333D01*
X135142857Y-24335714D01*
X135095238Y-24240476D01*
X135095238Y-24192857D01*
X135142857Y-24097619D01*
X135190476Y-24050000D01*
X135285714Y-24002380D01*
X135476190Y-24002380D01*
X135571428Y-24050000D01*
X135619047Y-24097619D01*
X135666666Y-24192857D01*
X135666666Y-24240476D01*
X135619047Y-24335714D01*
X135571428Y-24383333D01*
X135476190Y-24430952D01*
X135285714Y-24430952D01*
X135190476Y-24478571D01*
X135142857Y-24526190D01*
X135095238Y-24621428D01*
X135095238Y-24811904D01*
X135142857Y-24907142D01*
X135190476Y-24954761D01*
X135285714Y-25002380D01*
X135476190Y-25002380D01*
X135571428Y-24954761D01*
X135619047Y-24907142D01*
X135666666Y-24811904D01*
X135666666Y-24621428D01*
X135619047Y-24526190D01*
X135571428Y-24478571D01*
X135476190Y-24430952D01*
X131261904Y-16185714D02*
X131642857Y-16185714D01*
X131404761Y-15852380D02*
X131404761Y-16709523D01*
X131452380Y-16804761D01*
X131547619Y-16852380D01*
X131642857Y-16852380D01*
X131976190Y-16852380D02*
X131976190Y-15852380D01*
X132404761Y-16852380D02*
X132404761Y-16328571D01*
X132357142Y-16233333D01*
X132261904Y-16185714D01*
X132119047Y-16185714D01*
X132023809Y-16233333D01*
X131976190Y-16280952D01*
X133261904Y-16804761D02*
X133166666Y-16852380D01*
X132976190Y-16852380D01*
X132880952Y-16804761D01*
X132833333Y-16709523D01*
X132833333Y-16328571D01*
X132880952Y-16233333D01*
X132976190Y-16185714D01*
X133166666Y-16185714D01*
X133261904Y-16233333D01*
X133309523Y-16328571D01*
X133309523Y-16423809D01*
X132833333Y-16519047D01*
X133738095Y-16852380D02*
X133738095Y-16185714D01*
X133738095Y-16376190D02*
X133785714Y-16280952D01*
X133833333Y-16233333D01*
X133928571Y-16185714D01*
X134023809Y-16185714D01*
X134357142Y-16852380D02*
X134357142Y-16185714D01*
X134357142Y-16280952D02*
X134404761Y-16233333D01*
X134500000Y-16185714D01*
X134642857Y-16185714D01*
X134738095Y-16233333D01*
X134785714Y-16328571D01*
X134785714Y-16852380D01*
X134785714Y-16328571D02*
X134833333Y-16233333D01*
X134928571Y-16185714D01*
X135071428Y-16185714D01*
X135166666Y-16233333D01*
X135214285Y-16328571D01*
X135214285Y-16852380D01*
X135690476Y-16852380D02*
X135690476Y-16185714D01*
X135690476Y-15852380D02*
X135642857Y-15900000D01*
X135690476Y-15947619D01*
X135738095Y-15900000D01*
X135690476Y-15852380D01*
X135690476Y-15947619D01*
X136119047Y-16804761D02*
X136214285Y-16852380D01*
X136404761Y-16852380D01*
X136500000Y-16804761D01*
X136547619Y-16709523D01*
X136547619Y-16661904D01*
X136500000Y-16566666D01*
X136404761Y-16519047D01*
X136261904Y-16519047D01*
X136166666Y-16471428D01*
X136119047Y-16376190D01*
X136119047Y-16328571D01*
X136166666Y-16233333D01*
X136261904Y-16185714D01*
X136404761Y-16185714D01*
X136500000Y-16233333D01*
X136833333Y-16185714D02*
X137214285Y-16185714D01*
X136976190Y-15852380D02*
X136976190Y-16709523D01*
X137023809Y-16804761D01*
X137119047Y-16852380D01*
X137214285Y-16852380D01*
X137690476Y-16852380D02*
X137595238Y-16804761D01*
X137547619Y-16757142D01*
X137500000Y-16661904D01*
X137500000Y-16376190D01*
X137547619Y-16280952D01*
X137595238Y-16233333D01*
X137690476Y-16185714D01*
X137833333Y-16185714D01*
X137928571Y-16233333D01*
X137976190Y-16280952D01*
X138023809Y-16376190D01*
X138023809Y-16661904D01*
X137976190Y-16757142D01*
X137928571Y-16804761D01*
X137833333Y-16852380D01*
X137690476Y-16852380D01*
X138452380Y-16852380D02*
X138452380Y-16185714D01*
X138452380Y-16376190D02*
X138500000Y-16280952D01*
X138547619Y-16233333D01*
X138642857Y-16185714D01*
X138738095Y-16185714D01*
%TO.C,J7*%
X133166666Y-37872380D02*
X133166666Y-38586666D01*
X133119047Y-38729523D01*
X133023809Y-38824761D01*
X132880952Y-38872380D01*
X132785714Y-38872380D01*
X133547619Y-37872380D02*
X134214285Y-37872380D01*
X133785714Y-38872380D01*
%TO.C,J6*%
X143166666Y-48752380D02*
X143166666Y-49466666D01*
X143119047Y-49609523D01*
X143023809Y-49704761D01*
X142880952Y-49752380D01*
X142785714Y-49752380D01*
X144071428Y-48752380D02*
X143880952Y-48752380D01*
X143785714Y-48800000D01*
X143738095Y-48847619D01*
X143642857Y-48990476D01*
X143595238Y-49180952D01*
X143595238Y-49561904D01*
X143642857Y-49657142D01*
X143690476Y-49704761D01*
X143785714Y-49752380D01*
X143976190Y-49752380D01*
X144071428Y-49704761D01*
X144119047Y-49657142D01*
X144166666Y-49561904D01*
X144166666Y-49323809D01*
X144119047Y-49228571D01*
X144071428Y-49180952D01*
X143976190Y-49133333D01*
X143785714Y-49133333D01*
X143690476Y-49180952D01*
X143642857Y-49228571D01*
X143595238Y-49323809D01*
X135666666Y-41602380D02*
X135666666Y-41078571D01*
X135619047Y-40983333D01*
X135523809Y-40935714D01*
X135333333Y-40935714D01*
X135238095Y-40983333D01*
X135666666Y-41554761D02*
X135571428Y-41602380D01*
X135333333Y-41602380D01*
X135238095Y-41554761D01*
X135190476Y-41459523D01*
X135190476Y-41364285D01*
X135238095Y-41269047D01*
X135333333Y-41221428D01*
X135571428Y-41221428D01*
X135666666Y-41173809D01*
X136571428Y-41602380D02*
X136571428Y-40602380D01*
X136571428Y-41554761D02*
X136476190Y-41602380D01*
X136285714Y-41602380D01*
X136190476Y-41554761D01*
X136142857Y-41507142D01*
X136095238Y-41411904D01*
X136095238Y-41126190D01*
X136142857Y-41030952D01*
X136190476Y-40983333D01*
X136285714Y-40935714D01*
X136476190Y-40935714D01*
X136571428Y-40983333D01*
X136952380Y-41602380D02*
X137476190Y-40935714D01*
X136952380Y-40935714D02*
X137476190Y-41602380D01*
X138000000Y-41602380D02*
X137904761Y-41554761D01*
X137857142Y-41459523D01*
X137857142Y-40602380D01*
X138285714Y-40602380D02*
X138904761Y-40602380D01*
X138571428Y-40983333D01*
X138714285Y-40983333D01*
X138809523Y-41030952D01*
X138857142Y-41078571D01*
X138904761Y-41173809D01*
X138904761Y-41411904D01*
X138857142Y-41507142D01*
X138809523Y-41554761D01*
X138714285Y-41602380D01*
X138428571Y-41602380D01*
X138333333Y-41554761D01*
X138285714Y-41507142D01*
X139761904Y-40935714D02*
X139761904Y-41602380D01*
X139523809Y-40554761D02*
X139285714Y-41269047D01*
X139904761Y-41269047D01*
X140761904Y-40602380D02*
X140285714Y-40602380D01*
X140238095Y-41078571D01*
X140285714Y-41030952D01*
X140380952Y-40983333D01*
X140619047Y-40983333D01*
X140714285Y-41030952D01*
X140761904Y-41078571D01*
X140809523Y-41173809D01*
X140809523Y-41411904D01*
X140761904Y-41507142D01*
X140714285Y-41554761D01*
X140619047Y-41602380D01*
X140380952Y-41602380D01*
X140285714Y-41554761D01*
X140238095Y-41507142D01*
%TO.C,J5*%
X98166666Y-61622380D02*
X98166666Y-62336666D01*
X98119047Y-62479523D01*
X98023809Y-62574761D01*
X97880952Y-62622380D01*
X97785714Y-62622380D01*
X99119047Y-61622380D02*
X98642857Y-61622380D01*
X98595238Y-62098571D01*
X98642857Y-62050952D01*
X98738095Y-62003333D01*
X98976190Y-62003333D01*
X99071428Y-62050952D01*
X99119047Y-62098571D01*
X99166666Y-62193809D01*
X99166666Y-62431904D01*
X99119047Y-62527142D01*
X99071428Y-62574761D01*
X98976190Y-62622380D01*
X98738095Y-62622380D01*
X98642857Y-62574761D01*
X98595238Y-62527142D01*
%TO.C,J4*%
X145916666Y-24002380D02*
X145916666Y-24716666D01*
X145869047Y-24859523D01*
X145773809Y-24954761D01*
X145630952Y-25002380D01*
X145535714Y-25002380D01*
X146821428Y-24335714D02*
X146821428Y-25002380D01*
X146583333Y-23954761D02*
X146345238Y-24669047D01*
X146964285Y-24669047D01*
X143797619Y-16804761D02*
X143702380Y-16852380D01*
X143511904Y-16852380D01*
X143416666Y-16804761D01*
X143369047Y-16709523D01*
X143369047Y-16328571D01*
X143416666Y-16233333D01*
X143511904Y-16185714D01*
X143702380Y-16185714D01*
X143797619Y-16233333D01*
X143845238Y-16328571D01*
X143845238Y-16423809D01*
X143369047Y-16519047D01*
X144178571Y-16852380D02*
X144702380Y-16185714D01*
X144178571Y-16185714D02*
X144702380Y-16852380D01*
X144940476Y-16185714D02*
X145321428Y-16185714D01*
X145083333Y-15852380D02*
X145083333Y-16709523D01*
X145130952Y-16804761D01*
X145226190Y-16852380D01*
X145321428Y-16852380D01*
X145654761Y-16852380D02*
X145654761Y-16185714D01*
X145654761Y-16376190D02*
X145702380Y-16280952D01*
X145750000Y-16233333D01*
X145845238Y-16185714D01*
X145940476Y-16185714D01*
X146702380Y-16185714D02*
X146702380Y-16852380D01*
X146273809Y-16185714D02*
X146273809Y-16709523D01*
X146321428Y-16804761D01*
X146416666Y-16852380D01*
X146559523Y-16852380D01*
X146654761Y-16804761D01*
X146702380Y-16757142D01*
X147607142Y-16852380D02*
X147607142Y-15852380D01*
X147607142Y-16804761D02*
X147511904Y-16852380D01*
X147321428Y-16852380D01*
X147226190Y-16804761D01*
X147178571Y-16757142D01*
X147130952Y-16661904D01*
X147130952Y-16376190D01*
X147178571Y-16280952D01*
X147226190Y-16233333D01*
X147321428Y-16185714D01*
X147511904Y-16185714D01*
X147607142Y-16233333D01*
X148464285Y-16804761D02*
X148369047Y-16852380D01*
X148178571Y-16852380D01*
X148083333Y-16804761D01*
X148035714Y-16709523D01*
X148035714Y-16328571D01*
X148083333Y-16233333D01*
X148178571Y-16185714D01*
X148369047Y-16185714D01*
X148464285Y-16233333D01*
X148511904Y-16328571D01*
X148511904Y-16423809D01*
X148035714Y-16519047D01*
X148940476Y-16852380D02*
X148940476Y-16185714D01*
X148940476Y-16376190D02*
X148988095Y-16280952D01*
X149035714Y-16233333D01*
X149130952Y-16185714D01*
X149226190Y-16185714D01*
%TO.C,J3*%
X153616666Y-21952380D02*
X153616666Y-22666666D01*
X153569047Y-22809523D01*
X153473809Y-22904761D01*
X153330952Y-22952380D01*
X153235714Y-22952380D01*
X153997619Y-21952380D02*
X154616666Y-21952380D01*
X154283333Y-22333333D01*
X154426190Y-22333333D01*
X154521428Y-22380952D01*
X154569047Y-22428571D01*
X154616666Y-22523809D01*
X154616666Y-22761904D01*
X154569047Y-22857142D01*
X154521428Y-22904761D01*
X154426190Y-22952380D01*
X154140476Y-22952380D01*
X154045238Y-22904761D01*
X153997619Y-22857142D01*
X156142857Y-16185714D02*
X156142857Y-17185714D01*
X156142857Y-16233333D02*
X156238095Y-16185714D01*
X156428571Y-16185714D01*
X156523809Y-16233333D01*
X156571428Y-16280952D01*
X156619047Y-16376190D01*
X156619047Y-16661904D01*
X156571428Y-16757142D01*
X156523809Y-16804761D01*
X156428571Y-16852380D01*
X156238095Y-16852380D01*
X156142857Y-16804761D01*
X157047619Y-16852380D02*
X157047619Y-16185714D01*
X157047619Y-16376190D02*
X157095238Y-16280952D01*
X157142857Y-16233333D01*
X157238095Y-16185714D01*
X157333333Y-16185714D01*
X157809523Y-16852380D02*
X157714285Y-16804761D01*
X157666666Y-16757142D01*
X157619047Y-16661904D01*
X157619047Y-16376190D01*
X157666666Y-16280952D01*
X157714285Y-16233333D01*
X157809523Y-16185714D01*
X157952380Y-16185714D01*
X158047619Y-16233333D01*
X158095238Y-16280952D01*
X158142857Y-16376190D01*
X158142857Y-16661904D01*
X158095238Y-16757142D01*
X158047619Y-16804761D01*
X157952380Y-16852380D01*
X157809523Y-16852380D01*
X158571428Y-16852380D02*
X158571428Y-15852380D01*
X158571428Y-16233333D02*
X158666666Y-16185714D01*
X158857142Y-16185714D01*
X158952380Y-16233333D01*
X159000000Y-16280952D01*
X159047619Y-16376190D01*
X159047619Y-16661904D01*
X159000000Y-16757142D01*
X158952380Y-16804761D01*
X158857142Y-16852380D01*
X158666666Y-16852380D01*
X158571428Y-16804761D01*
X159857142Y-16804761D02*
X159761904Y-16852380D01*
X159571428Y-16852380D01*
X159476190Y-16804761D01*
X159428571Y-16709523D01*
X159428571Y-16328571D01*
X159476190Y-16233333D01*
X159571428Y-16185714D01*
X159761904Y-16185714D01*
X159857142Y-16233333D01*
X159904761Y-16328571D01*
X159904761Y-16423809D01*
X159428571Y-16519047D01*
%TO.C,J2*%
X152496666Y-39202380D02*
X152496666Y-39916666D01*
X152449047Y-40059523D01*
X152353809Y-40154761D01*
X152210952Y-40202380D01*
X152115714Y-40202380D01*
X152925238Y-39297619D02*
X152972857Y-39250000D01*
X153068095Y-39202380D01*
X153306190Y-39202380D01*
X153401428Y-39250000D01*
X153449047Y-39297619D01*
X153496666Y-39392857D01*
X153496666Y-39488095D01*
X153449047Y-39630952D01*
X152877619Y-40202380D01*
X153496666Y-40202380D01*
%TO.C,J1*%
X98166666Y-51752380D02*
X98166666Y-52466666D01*
X98119047Y-52609523D01*
X98023809Y-52704761D01*
X97880952Y-52752380D01*
X97785714Y-52752380D01*
X99166666Y-52752380D02*
X98595238Y-52752380D01*
X98880952Y-52752380D02*
X98880952Y-51752380D01*
X98785714Y-51895238D01*
X98690476Y-51990476D01*
X98595238Y-52038095D01*
X95761904Y-44602380D02*
X95761904Y-43602380D01*
X95761904Y-43983333D02*
X95857142Y-43935714D01*
X96047619Y-43935714D01*
X96142857Y-43983333D01*
X96190476Y-44030952D01*
X96238095Y-44126190D01*
X96238095Y-44411904D01*
X96190476Y-44507142D01*
X96142857Y-44554761D01*
X96047619Y-44602380D01*
X95857142Y-44602380D01*
X95761904Y-44554761D01*
X96666666Y-44602380D02*
X96666666Y-43935714D01*
X96666666Y-44030952D02*
X96714285Y-43983333D01*
X96809523Y-43935714D01*
X96952380Y-43935714D01*
X97047619Y-43983333D01*
X97095238Y-44078571D01*
X97095238Y-44602380D01*
X97095238Y-44078571D02*
X97142857Y-43983333D01*
X97238095Y-43935714D01*
X97380952Y-43935714D01*
X97476190Y-43983333D01*
X97523809Y-44078571D01*
X97523809Y-44602380D01*
X98380952Y-44554761D02*
X98285714Y-44602380D01*
X98095238Y-44602380D01*
X98000000Y-44554761D01*
X97952380Y-44459523D01*
X97952380Y-44078571D01*
X98000000Y-43983333D01*
X98095238Y-43935714D01*
X98285714Y-43935714D01*
X98380952Y-43983333D01*
X98428571Y-44078571D01*
X98428571Y-44173809D01*
X97952380Y-44269047D01*
X98809523Y-43697619D02*
X98857142Y-43650000D01*
X98952380Y-43602380D01*
X99190476Y-43602380D01*
X99285714Y-43650000D01*
X99333333Y-43697619D01*
X99380952Y-43792857D01*
X99380952Y-43888095D01*
X99333333Y-44030952D01*
X98761904Y-44602380D01*
X99380952Y-44602380D01*
X99952380Y-44030952D02*
X99857142Y-43983333D01*
X99809523Y-43935714D01*
X99761904Y-43840476D01*
X99761904Y-43792857D01*
X99809523Y-43697619D01*
X99857142Y-43650000D01*
X99952380Y-43602380D01*
X100142857Y-43602380D01*
X100238095Y-43650000D01*
X100285714Y-43697619D01*
X100333333Y-43792857D01*
X100333333Y-43840476D01*
X100285714Y-43935714D01*
X100238095Y-43983333D01*
X100142857Y-44030952D01*
X99952380Y-44030952D01*
X99857142Y-44078571D01*
X99809523Y-44126190D01*
X99761904Y-44221428D01*
X99761904Y-44411904D01*
X99809523Y-44507142D01*
X99857142Y-44554761D01*
X99952380Y-44602380D01*
X100142857Y-44602380D01*
X100238095Y-44554761D01*
X100285714Y-44507142D01*
X100333333Y-44411904D01*
X100333333Y-44221428D01*
X100285714Y-44126190D01*
X100238095Y-44078571D01*
X100142857Y-44030952D01*
X100952380Y-43602380D02*
X101047619Y-43602380D01*
X101142857Y-43650000D01*
X101190476Y-43697619D01*
X101238095Y-43792857D01*
X101285714Y-43983333D01*
X101285714Y-44221428D01*
X101238095Y-44411904D01*
X101190476Y-44507142D01*
X101142857Y-44554761D01*
X101047619Y-44602380D01*
X100952380Y-44602380D01*
X100857142Y-44554761D01*
X100809523Y-44507142D01*
X100761904Y-44411904D01*
X100714285Y-44221428D01*
X100714285Y-43983333D01*
X100761904Y-43792857D01*
X100809523Y-43697619D01*
X100857142Y-43650000D01*
X100952380Y-43602380D01*
%TO.C,H8*%
X80238095Y-69252380D02*
X80238095Y-68252380D01*
X80238095Y-68728571D02*
X80809523Y-68728571D01*
X80809523Y-69252380D02*
X80809523Y-68252380D01*
X81428571Y-68680952D02*
X81333333Y-68633333D01*
X81285714Y-68585714D01*
X81238095Y-68490476D01*
X81238095Y-68442857D01*
X81285714Y-68347619D01*
X81333333Y-68300000D01*
X81428571Y-68252380D01*
X81619047Y-68252380D01*
X81714285Y-68300000D01*
X81761904Y-68347619D01*
X81809523Y-68442857D01*
X81809523Y-68490476D01*
X81761904Y-68585714D01*
X81714285Y-68633333D01*
X81619047Y-68680952D01*
X81428571Y-68680952D01*
X81333333Y-68728571D01*
X81285714Y-68776190D01*
X81238095Y-68871428D01*
X81238095Y-69061904D01*
X81285714Y-69157142D01*
X81333333Y-69204761D01*
X81428571Y-69252380D01*
X81619047Y-69252380D01*
X81714285Y-69204761D01*
X81761904Y-69157142D01*
X81809523Y-69061904D01*
X81809523Y-68871428D01*
X81761904Y-68776190D01*
X81714285Y-68728571D01*
X81619047Y-68680952D01*
%TO.C,H7*%
X22238095Y-69252380D02*
X22238095Y-68252380D01*
X22238095Y-68728571D02*
X22809523Y-68728571D01*
X22809523Y-69252380D02*
X22809523Y-68252380D01*
X23190476Y-68252380D02*
X23857142Y-68252380D01*
X23428571Y-69252380D01*
%TO.C,H6*%
X80238095Y-26652380D02*
X80238095Y-25652380D01*
X80238095Y-26128571D02*
X80809523Y-26128571D01*
X80809523Y-26652380D02*
X80809523Y-25652380D01*
X81714285Y-25652380D02*
X81523809Y-25652380D01*
X81428571Y-25700000D01*
X81380952Y-25747619D01*
X81285714Y-25890476D01*
X81238095Y-26080952D01*
X81238095Y-26461904D01*
X81285714Y-26557142D01*
X81333333Y-26604761D01*
X81428571Y-26652380D01*
X81619047Y-26652380D01*
X81714285Y-26604761D01*
X81761904Y-26557142D01*
X81809523Y-26461904D01*
X81809523Y-26223809D01*
X81761904Y-26128571D01*
X81714285Y-26080952D01*
X81619047Y-26033333D01*
X81428571Y-26033333D01*
X81333333Y-26080952D01*
X81285714Y-26128571D01*
X81238095Y-26223809D01*
%TO.C,H5*%
X22238095Y-26652380D02*
X22238095Y-25652380D01*
X22238095Y-26128571D02*
X22809523Y-26128571D01*
X22809523Y-26652380D02*
X22809523Y-25652380D01*
X23761904Y-25652380D02*
X23285714Y-25652380D01*
X23238095Y-26128571D01*
X23285714Y-26080952D01*
X23380952Y-26033333D01*
X23619047Y-26033333D01*
X23714285Y-26080952D01*
X23761904Y-26128571D01*
X23809523Y-26223809D01*
X23809523Y-26461904D01*
X23761904Y-26557142D01*
X23714285Y-26604761D01*
X23619047Y-26652380D01*
X23380952Y-26652380D01*
X23285714Y-26604761D01*
X23238095Y-26557142D01*
%TO.C,H4*%
X157238095Y-69652380D02*
X157238095Y-68652380D01*
X157238095Y-69128571D02*
X157809523Y-69128571D01*
X157809523Y-69652380D02*
X157809523Y-68652380D01*
X158714285Y-68985714D02*
X158714285Y-69652380D01*
X158476190Y-68604761D02*
X158238095Y-69319047D01*
X158857142Y-69319047D01*
%TO.C,H3*%
X117238095Y-69652380D02*
X117238095Y-68652380D01*
X117238095Y-69128571D02*
X117809523Y-69128571D01*
X117809523Y-69652380D02*
X117809523Y-68652380D01*
X118190476Y-68652380D02*
X118809523Y-68652380D01*
X118476190Y-69033333D01*
X118619047Y-69033333D01*
X118714285Y-69080952D01*
X118761904Y-69128571D01*
X118809523Y-69223809D01*
X118809523Y-69461904D01*
X118761904Y-69557142D01*
X118714285Y-69604761D01*
X118619047Y-69652380D01*
X118333333Y-69652380D01*
X118238095Y-69604761D01*
X118190476Y-69557142D01*
%TO.C,H2*%
X105238095Y-39652380D02*
X105238095Y-38652380D01*
X105238095Y-39128571D02*
X105809523Y-39128571D01*
X105809523Y-39652380D02*
X105809523Y-38652380D01*
X106238095Y-38747619D02*
X106285714Y-38700000D01*
X106380952Y-38652380D01*
X106619047Y-38652380D01*
X106714285Y-38700000D01*
X106761904Y-38747619D01*
X106809523Y-38842857D01*
X106809523Y-38938095D01*
X106761904Y-39080952D01*
X106190476Y-39652380D01*
X106809523Y-39652380D01*
%TO.C,H1*%
X90238095Y-39652380D02*
X90238095Y-38652380D01*
X90238095Y-39128571D02*
X90809523Y-39128571D01*
X90809523Y-39652380D02*
X90809523Y-38652380D01*
X91809523Y-39652380D02*
X91238095Y-39652380D01*
X91523809Y-39652380D02*
X91523809Y-38652380D01*
X91428571Y-38795238D01*
X91333333Y-38890476D01*
X91238095Y-38938095D01*
%TO.C,D1*%
X68071904Y-61832380D02*
X68071904Y-60832380D01*
X68310000Y-60832380D01*
X68452857Y-60880000D01*
X68548095Y-60975238D01*
X68595714Y-61070476D01*
X68643333Y-61260952D01*
X68643333Y-61403809D01*
X68595714Y-61594285D01*
X68548095Y-61689523D01*
X68452857Y-61784761D01*
X68310000Y-61832380D01*
X68071904Y-61832380D01*
X69595714Y-61832380D02*
X69024285Y-61832380D01*
X69310000Y-61832380D02*
X69310000Y-60832380D01*
X69214761Y-60975238D01*
X69119523Y-61070476D01*
X69024285Y-61118095D01*
X64738095Y-62152380D02*
X64738095Y-61152380D01*
X65309523Y-62152380D02*
X64880952Y-61580952D01*
X65309523Y-61152380D02*
X64738095Y-61723809D01*
%TD*%
M02*
